# Wavefront OBJ file automatically generated by Tiled2Unity

# Vertices (Count = 179)
v 0 -64 0
v -640 -64 0
v -640 416 0
v 0 416 0
v -256 -256 0
v -320 -256 0
v -320 -192 0
v -256 -192 0
v -384 -256 0
v -384 -192 0
v -64 -320 0
v -128 -320 0
v -128 -256 0
v -64 -256 0
v -192 -320 0
v -192 -256 0
v -256 -320 0
v -320 -320 0
v -384 -320 0
v -448 -320 0
v -448 -256 0
v -512 -320 0
v -512 -256 0
v -576 -320 0
v -576 -256 0
v -640 -320 0
v -704 -320 0
v -704 -256 0
v -640 -256 0
v -768 -320 0
v -768 -256 0
v -832 -320 0
v -832 -256 0
v -64 -384 0
v -128 -384 0
v -192 -384 0
v -256 -384 0
v -320 -384 0
v -384 -384 0
v -448 -384 0
v -512 -384 0
v -576 -384 0
v -640 -384 0
v -704 -384 0
v -768 -384 0
v -832 -384 0
v -64 -448 0
v -128 -448 0
v -192 -448 0
v -256 -448 0
v -320 -448 0
v -384 -448 0
v -448 -448 0
v -512 -448 0
v -576 -448 0
v -640 -448 0
v -704 -448 0
v -768 -448 0
v -832 -448 0
v -64 -512 0
v -128 -512 0
v -192 -512 0
v -256 -512 0
v -320 -512 0
v -384 -512 0
v -448 -512 0
v -512 -512 0
v -576 -512 0
v -640 -512 0
v -704 -512 0
v -768 -512 0
v -832 -512 0
v -64 -576 0
v -128 -576 0
v -192 -576 0
v -256 -576 0
v -320 -576 0
v -384 -576 0
v -448 -576 0
v -512 -576 0
v -576 -576 0
v -640 -576 0
v -704 -576 0
v -768 -576 0
v -832 -576 0
v -64 -640 0
v -128 -640 0
v -192 -640 0
v -256 -640 0
v -320 -640 0
v -384 -640 0
v -448 -640 0
v -512 -640 0
v -576 -640 0
v -640 -640 0
v -704 -640 0
v -768 -640 0
v -832 -640 0
v -64 -704 0
v -128 -704 0
v -192 -704 0
v -256 -704 0
v -320 -704 0
v -384 -704 0
v -448 -704 0
v -512 -704 0
v -576 -704 0
v -640 -704 0
v -704 -704 0
v -768 -704 0
v -832 -704 0
v -64 -768 0
v -128 -768 0
v -192 -768 0
v -256 -768 0
v -320 -768 0
v -384 -768 0
v -448 -768 0
v -512 -768 0
v -576 -768 0
v -640 -768 0
v -704 -768 0
v -768 -768 0
v -832 -768 0
v -64 -832 0
v -128 -832 0
v -192 -832 0
v -256 -832 0
v -320 -832 0
v -384 -832 0
v -448 -832 0
v -512 -832 0
v -576 -832 0
v -640 -832 0
v -704 -832 0
v -768 -832 0
v -832 -832 0
v -64 -896 0
v -128 -896 0
v -192 -896 0
v -256 -896 0
v -320 -896 0
v -384 -896 0
v -448 -896 0
v -512 -896 0
v -576 -896 0
v -640 -896 0
v -704 -896 0
v -768 -896 0
v -832 -896 0
v 0 -960 0
v -64 -960 0
v 0 -896 0
v -128 -960 0
v -192 -960 0
v -256 -960 0
v -320 -960 0
v -384 -960 0
v -448 -960 0
v -512 -960 0
v -576 -960 0
v -640 -960 0
v -704 -960 0
v -768 -960 0
v -832 -960 0
v -896 -960 0
v -896 -896 0
v -960 -960 0
v -960 -896 0
v -1024 -960 0
v -1024 -896 0
v -1088 -960 0
v -1088 -896 0
v -1152 -960 0
v -1152 -896 0
v -1216 -960 0
v -1216 -896 0
v -1280 -960 0
v -1280 -896 0

# Texture cooridinates (Count = 24)
vt 0.0001220703 0.0001220703
vt 0.9998779 0.0001220703
vt 0.9998779 0.9998779
vt 0.0001220703 0.9998779
vt 0.04546009 0.9166768
vt 0.09090354 0.9166768
vt 0.09090354 0.9999898
vt 0.04546009 0.9999898
vt 0.1363692 0.9166768
vt 0.1818126 0.9166768
vt 0.1818126 0.9999898
vt 0.1363692 0.9999898
vt 0.09091464 0.9166768
vt 0.1363581 0.9166768
vt 0.1363581 0.9999898
vt 0.09091464 0.9999898
vt 5.548651E-06 0.9166768
vt 0.045449 0.9166768
vt 0.045449 0.9999898
vt 5.548651E-06 0.9999898
vt 5.548651E-06 0.4166768
vt 0.045449 0.4166768
vt 0.045449 0.4999898
vt 5.548651E-06 0.4999898

# Normal
vn 0 0 -1

# Groups (Count = 8)

g mesh_0001
f 1/1/1 2/2/1 3/3/1 4/4/1

g mesh_0002
f 1/1/1 2/2/1 3/3/1 4/4/1

g mesh_0003
f 1/1/1 2/2/1 3/3/1 4/4/1

g mesh_0004
f 1/1/1 2/2/1 3/3/1 4/4/1

g mesh_0005
f 1/1/1 2/2/1 3/3/1 4/4/1

g mesh_0006
f 1/1/1 2/2/1 3/3/1 4/4/1

g mesh_0007
f 1/1/1 2/2/1 3/3/1 4/4/1

g mesh_0008
f 5/5/1 6/6/1 7/7/1 8/8/1
f 6/9/1 9/10/1 10/11/1 7/12/1
f 11/5/1 12/6/1 13/7/1 14/8/1
f 12/13/1 15/14/1 16/15/1 13/16/1
f 15/13/1 17/14/1 5/15/1 16/16/1
f 17/17/1 18/18/1 6/19/1 5/20/1
f 18/17/1 19/18/1 9/19/1 6/20/1
f 19/13/1 20/14/1 21/15/1 9/16/1
f 20/13/1 22/14/1 23/15/1 21/16/1
f 22/13/1 24/14/1 25/15/1 23/16/1
f 26/13/1 27/14/1 28/15/1 29/16/1
f 27/13/1 30/14/1 31/15/1 28/16/1
f 30/9/1 32/10/1 33/11/1 31/12/1
f 34/17/1 35/18/1 12/19/1 11/20/1
f 35/17/1 36/18/1 15/19/1 12/20/1
f 36/17/1 37/18/1 17/19/1 15/20/1
f 37/17/1 38/18/1 18/19/1 17/20/1
f 38/17/1 39/18/1 19/19/1 18/20/1
f 39/17/1 40/18/1 20/19/1 19/20/1
f 40/17/1 41/18/1 22/19/1 20/20/1
f 41/17/1 42/18/1 24/19/1 22/20/1
f 43/17/1 44/18/1 27/19/1 26/20/1
f 44/17/1 45/18/1 30/19/1 27/20/1
f 45/17/1 46/18/1 32/19/1 30/20/1
f 47/17/1 48/18/1 35/19/1 34/20/1
f 48/17/1 49/18/1 36/19/1 35/20/1
f 49/17/1 50/18/1 37/19/1 36/20/1
f 50/17/1 51/18/1 38/19/1 37/20/1
f 51/17/1 52/18/1 39/19/1 38/20/1
f 52/17/1 53/18/1 40/19/1 39/20/1
f 53/17/1 54/18/1 41/19/1 40/20/1
f 54/17/1 55/18/1 42/19/1 41/20/1
f 56/17/1 57/18/1 44/19/1 43/20/1
f 57/17/1 58/18/1 45/19/1 44/20/1
f 58/17/1 59/18/1 46/19/1 45/20/1
f 60/17/1 61/18/1 48/19/1 47/20/1
f 61/17/1 62/18/1 49/19/1 48/20/1
f 62/17/1 63/18/1 50/19/1 49/20/1
f 63/17/1 64/18/1 51/19/1 50/20/1
f 64/17/1 65/18/1 52/19/1 51/20/1
f 65/17/1 66/18/1 53/19/1 52/20/1
f 66/17/1 67/18/1 54/19/1 53/20/1
f 67/17/1 68/18/1 55/19/1 54/20/1
f 69/17/1 70/18/1 57/19/1 56/20/1
f 70/17/1 71/18/1 58/19/1 57/20/1
f 71/17/1 72/18/1 59/19/1 58/20/1
f 73/17/1 74/18/1 61/19/1 60/20/1
f 74/17/1 75/18/1 62/19/1 61/20/1
f 75/17/1 76/18/1 63/19/1 62/20/1
f 76/17/1 77/18/1 64/19/1 63/20/1
f 77/17/1 78/18/1 65/19/1 64/20/1
f 78/17/1 79/18/1 66/19/1 65/20/1
f 79/17/1 80/18/1 67/19/1 66/20/1
f 80/17/1 81/18/1 68/19/1 67/20/1
f 82/17/1 83/18/1 70/19/1 69/20/1
f 83/17/1 84/18/1 71/19/1 70/20/1
f 84/17/1 85/18/1 72/19/1 71/20/1
f 86/17/1 87/18/1 74/19/1 73/20/1
f 87/17/1 88/18/1 75/19/1 74/20/1
f 88/17/1 89/18/1 76/19/1 75/20/1
f 89/17/1 90/18/1 77/19/1 76/20/1
f 90/17/1 91/18/1 78/19/1 77/20/1
f 91/17/1 92/18/1 79/19/1 78/20/1
f 92/17/1 93/18/1 80/19/1 79/20/1
f 93/17/1 94/18/1 81/19/1 80/20/1
f 95/17/1 96/18/1 83/19/1 82/20/1
f 96/17/1 97/18/1 84/19/1 83/20/1
f 97/17/1 98/18/1 85/19/1 84/20/1
f 99/17/1 100/18/1 87/19/1 86/20/1
f 100/17/1 101/18/1 88/19/1 87/20/1
f 101/17/1 102/18/1 89/19/1 88/20/1
f 102/17/1 103/18/1 90/19/1 89/20/1
f 103/17/1 104/18/1 91/19/1 90/20/1
f 104/17/1 105/18/1 92/19/1 91/20/1
f 105/17/1 106/18/1 93/19/1 92/20/1
f 106/17/1 107/18/1 94/19/1 93/20/1
f 108/17/1 109/18/1 96/19/1 95/20/1
f 109/17/1 110/18/1 97/19/1 96/20/1
f 110/17/1 111/18/1 98/19/1 97/20/1
f 112/17/1 113/18/1 100/19/1 99/20/1
f 113/17/1 114/18/1 101/19/1 100/20/1
f 114/17/1 115/18/1 102/19/1 101/20/1
f 115/17/1 116/18/1 103/19/1 102/20/1
f 116/17/1 117/18/1 104/19/1 103/20/1
f 117/17/1 118/18/1 105/19/1 104/20/1
f 118/17/1 119/18/1 106/19/1 105/20/1
f 119/17/1 120/18/1 107/19/1 106/20/1
f 121/17/1 122/18/1 109/19/1 108/20/1
f 122/17/1 123/18/1 110/19/1 109/20/1
f 123/17/1 124/18/1 111/19/1 110/20/1
f 125/17/1 126/18/1 113/19/1 112/20/1
f 126/17/1 127/18/1 114/19/1 113/20/1
f 127/17/1 128/18/1 115/19/1 114/20/1
f 128/17/1 129/18/1 116/19/1 115/20/1
f 129/17/1 130/18/1 117/19/1 116/20/1
f 130/17/1 131/18/1 118/19/1 117/20/1
f 131/17/1 132/18/1 119/19/1 118/20/1
f 132/17/1 133/18/1 120/19/1 119/20/1
f 134/17/1 135/18/1 122/19/1 121/20/1
f 135/17/1 136/18/1 123/19/1 122/20/1
f 136/17/1 137/18/1 124/19/1 123/20/1
f 138/17/1 139/18/1 126/19/1 125/20/1
f 139/17/1 140/18/1 127/19/1 126/20/1
f 140/17/1 141/18/1 128/19/1 127/20/1
f 141/17/1 142/18/1 129/19/1 128/20/1
f 142/17/1 143/18/1 130/19/1 129/20/1
f 143/17/1 144/18/1 131/19/1 130/20/1
f 144/17/1 145/18/1 132/19/1 131/20/1
f 145/17/1 146/18/1 133/19/1 132/20/1
f 147/17/1 148/18/1 135/19/1 134/20/1
f 148/17/1 149/18/1 136/19/1 135/20/1
f 149/17/1 150/18/1 137/19/1 136/20/1
f 151/21/1 152/22/1 138/23/1 153/24/1
f 152/17/1 154/18/1 139/19/1 138/20/1
f 154/17/1 155/18/1 140/19/1 139/20/1
f 155/17/1 156/18/1 141/19/1 140/20/1
f 156/17/1 157/18/1 142/19/1 141/20/1
f 157/17/1 158/18/1 143/19/1 142/20/1
f 158/17/1 159/18/1 144/19/1 143/20/1
f 159/17/1 160/18/1 145/19/1 144/20/1
f 160/17/1 161/18/1 146/19/1 145/20/1
f 161/21/1 162/22/1 147/23/1 146/24/1
f 162/17/1 163/18/1 148/19/1 147/20/1
f 163/17/1 164/18/1 149/19/1 148/20/1
f 164/17/1 165/18/1 150/19/1 149/20/1
f 165/21/1 166/22/1 167/23/1 150/24/1
f 166/21/1 168/22/1 169/23/1 167/24/1
f 168/21/1 170/22/1 171/23/1 169/24/1
f 170/21/1 172/22/1 173/23/1 171/24/1
f 172/21/1 174/22/1 175/23/1 173/24/1
f 174/21/1 176/22/1 177/23/1 175/24/1
f 176/21/1 178/22/1 179/23/1 177/24/1

