# Wavefront OBJ file automatically generated by Tiled2Unity

# Vertices (Count = 441)
v 0 -64 0
v -64 -64 0
v -64 0 0
v 0 0 0
v -128 -64 0
v -128 0 0
v -192 -64 0
v -192 0 0
v -256 -64 0
v -256 0 0
v -320 -64 0
v -320 0 0
v -384 -64 0
v -384 0 0
v -448 -64 0
v -448 0 0
v -512 -64 0
v -512 0 0
v -576 -64 0
v -576 0 0
v -640 -64 0
v -640 0 0
v -704 -64 0
v -704 0 0
v -768 -64 0
v -768 0 0
v -832 -64 0
v -832 0 0
v -896 -64 0
v -896 0 0
v -960 -64 0
v -960 0 0
v -1024 -64 0
v -1024 0 0
v -1088 -64 0
v -1088 0 0
v -1152 -64 0
v -1152 0 0
v -1216 -64 0
v -1216 0 0
v -1280 -64 0
v -1280 0 0
v 0 -128 0
v -64 -128 0
v -128 -128 0
v -192 -128 0
v -256 -128 0
v -320 -128 0
v -384 -128 0
v -448 -128 0
v -512 -128 0
v -576 -128 0
v -640 -128 0
v -704 -128 0
v -768 -128 0
v -832 -128 0
v -896 -128 0
v -960 -128 0
v -1024 -128 0
v -1088 -128 0
v -1152 -128 0
v -1216 -128 0
v -1280 -128 0
v 0 -192 0
v -64 -192 0
v -128 -192 0
v -192 -192 0
v -256 -192 0
v -320 -192 0
v -384 -192 0
v -448 -192 0
v -512 -192 0
v -576 -192 0
v -640 -192 0
v -704 -192 0
v -768 -192 0
v -832 -192 0
v -896 -192 0
v -960 -192 0
v -1024 -192 0
v -1088 -192 0
v -1152 -192 0
v -1216 -192 0
v -1280 -192 0
v 0 -256 0
v -64 -256 0
v -128 -256 0
v -192 -256 0
v -256 -256 0
v -320 -256 0
v -384 -256 0
v -448 -256 0
v -512 -256 0
v -576 -256 0
v -640 -256 0
v -704 -256 0
v -768 -256 0
v -832 -256 0
v -896 -256 0
v -960 -256 0
v -1024 -256 0
v -1088 -256 0
v -1152 -256 0
v -1216 -256 0
v -1280 -256 0
v 0 -320 0
v -64 -320 0
v -128 -320 0
v -192 -320 0
v -256 -320 0
v -320 -320 0
v -384 -320 0
v -448 -320 0
v -512 -320 0
v -576 -320 0
v -640 -320 0
v -704 -320 0
v -768 -320 0
v -832 -320 0
v -896 -320 0
v -960 -320 0
v -1024 -320 0
v -1088 -320 0
v -1152 -320 0
v -1216 -320 0
v -1280 -320 0
v 0 -384 0
v -64 -384 0
v -128 -384 0
v -192 -384 0
v -256 -384 0
v -320 -384 0
v -384 -384 0
v -448 -384 0
v -512 -384 0
v -576 -384 0
v -640 -384 0
v -704 -384 0
v -768 -384 0
v -832 -384 0
v -896 -384 0
v -960 -384 0
v -1024 -384 0
v -1088 -384 0
v -1152 -384 0
v -1216 -384 0
v -1280 -384 0
v 0 -448 0
v -64 -448 0
v -128 -448 0
v -192 -448 0
v -256 -448 0
v -320 -448 0
v -384 -448 0
v -448 -448 0
v -512 -448 0
v -576 -448 0
v -640 -448 0
v -704 -448 0
v -768 -448 0
v -832 -448 0
v -896 -448 0
v -960 -448 0
v -1024 -448 0
v -1088 -448 0
v -1152 -448 0
v -1216 -448 0
v -1280 -448 0
v 0 -512 0
v -64 -512 0
v -128 -512 0
v -192 -512 0
v -256 -512 0
v -320 -512 0
v -384 -512 0
v -448 -512 0
v -512 -512 0
v -576 -512 0
v -640 -512 0
v -704 -512 0
v -768 -512 0
v -832 -512 0
v -896 -512 0
v -960 -512 0
v -1024 -512 0
v -1088 -512 0
v -1152 -512 0
v -1216 -512 0
v -1280 -512 0
v 0 -576 0
v -64 -576 0
v -128 -576 0
v -192 -576 0
v -256 -576 0
v -320 -576 0
v -384 -576 0
v -448 -576 0
v -512 -576 0
v -576 -576 0
v -640 -576 0
v -704 -576 0
v -768 -576 0
v -832 -576 0
v -896 -576 0
v -960 -576 0
v -1024 -576 0
v -1088 -576 0
v -1152 -576 0
v -1216 -576 0
v -1280 -576 0
v 0 -640 0
v -64 -640 0
v -128 -640 0
v -192 -640 0
v -256 -640 0
v -320 -640 0
v -384 -640 0
v -448 -640 0
v -512 -640 0
v -576 -640 0
v -640 -640 0
v -704 -640 0
v -768 -640 0
v -832 -640 0
v -896 -640 0
v -960 -640 0
v -1024 -640 0
v -1088 -640 0
v -1152 -640 0
v -1216 -640 0
v -1280 -640 0
v 0 -704 0
v -64 -704 0
v -128 -704 0
v -192 -704 0
v -256 -704 0
v -320 -704 0
v -384 -704 0
v -448 -704 0
v -512 -704 0
v -576 -704 0
v -640 -704 0
v -704 -704 0
v -768 -704 0
v -832 -704 0
v -896 -704 0
v -960 -704 0
v -1024 -704 0
v -1088 -704 0
v -1152 -704 0
v -1216 -704 0
v -1280 -704 0
v 0 -768 0
v -64 -768 0
v -128 -768 0
v -192 -768 0
v -256 -768 0
v -320 -768 0
v -384 -768 0
v -448 -768 0
v -512 -768 0
v -576 -768 0
v -640 -768 0
v -704 -768 0
v -768 -768 0
v -832 -768 0
v -896 -768 0
v -960 -768 0
v -1024 -768 0
v -1088 -768 0
v -1152 -768 0
v -1216 -768 0
v -1280 -768 0
v 0 -832 0
v -64 -832 0
v -128 -832 0
v -192 -832 0
v -256 -832 0
v -320 -832 0
v -384 -832 0
v -448 -832 0
v -512 -832 0
v -576 -832 0
v -640 -832 0
v -704 -832 0
v -768 -832 0
v -832 -832 0
v -896 -832 0
v -960 -832 0
v -1024 -832 0
v -1088 -832 0
v -1152 -832 0
v -1216 -832 0
v -1280 -832 0
v 0 -896 0
v -64 -896 0
v -128 -896 0
v -192 -896 0
v -256 -896 0
v -320 -896 0
v -384 -896 0
v -448 -896 0
v -512 -896 0
v -576 -896 0
v -640 -896 0
v -704 -896 0
v -768 -896 0
v -832 -896 0
v -896 -896 0
v -960 -896 0
v -1024 -896 0
v -1088 -896 0
v -1152 -896 0
v -1216 -896 0
v -1280 -896 0
v 0 -960 0
v -64 -960 0
v -128 -960 0
v -192 -960 0
v -256 -960 0
v -320 -960 0
v -384 -960 0
v -448 -960 0
v -512 -960 0
v -576 -960 0
v -640 -960 0
v -704 -960 0
v -768 -960 0
v -832 -960 0
v -896 -960 0
v -960 -960 0
v -1024 -960 0
v -1088 -960 0
v -1152 -960 0
v -1216 -960 0
v -1280 -960 0
v 0 -1024 0
v -64 -1024 0
v -128 -1024 0
v -192 -1024 0
v -256 -1024 0
v -320 -1024 0
v -384 -1024 0
v -448 -1024 0
v -512 -1024 0
v -576 -1024 0
v -640 -1024 0
v -704 -1024 0
v -768 -1024 0
v -832 -1024 0
v -896 -1024 0
v -960 -1024 0
v -1024 -1024 0
v -1088 -1024 0
v -1152 -1024 0
v -1216 -1024 0
v -1280 -1024 0
v 0 -1088 0
v -64 -1088 0
v -128 -1088 0
v -192 -1088 0
v -256 -1088 0
v -320 -1088 0
v -384 -1088 0
v -448 -1088 0
v -512 -1088 0
v -576 -1088 0
v -640 -1088 0
v -704 -1088 0
v -768 -1088 0
v -832 -1088 0
v -896 -1088 0
v -960 -1088 0
v -1024 -1088 0
v -1088 -1088 0
v -1152 -1088 0
v -1216 -1088 0
v -1280 -1088 0
v 0 -1152 0
v -64 -1152 0
v -128 -1152 0
v -192 -1152 0
v -256 -1152 0
v -320 -1152 0
v -384 -1152 0
v -448 -1152 0
v -512 -1152 0
v -576 -1152 0
v -640 -1152 0
v -704 -1152 0
v -768 -1152 0
v -832 -1152 0
v -896 -1152 0
v -960 -1152 0
v -1024 -1152 0
v -1088 -1152 0
v -1152 -1152 0
v -1216 -1152 0
v -1280 -1152 0
v 0 -1216 0
v -64 -1216 0
v -128 -1216 0
v -192 -1216 0
v -256 -1216 0
v -320 -1216 0
v -384 -1216 0
v -448 -1216 0
v -512 -1216 0
v -576 -1216 0
v -640 -1216 0
v -704 -1216 0
v -768 -1216 0
v -832 -1216 0
v -896 -1216 0
v -960 -1216 0
v -1024 -1216 0
v -1088 -1216 0
v -1152 -1216 0
v -1216 -1216 0
v -1280 -1216 0
v 0 -1280 0
v -64 -1280 0
v -128 -1280 0
v -192 -1280 0
v -256 -1280 0
v -320 -1280 0
v -384 -1280 0
v -448 -1280 0
v -512 -1280 0
v -576 -1280 0
v -640 -1280 0
v -704 -1280 0
v -768 -1280 0
v -832 -1280 0
v -896 -1280 0
v -960 -1280 0
v -1024 -1280 0
v -1088 -1280 0
v -1152 -1280 0
v -1216 -1280 0
v -1280 -1280 0

# Texture cooridinates (Count = 8)
vt 5.548651E-06 0.4166768
vt 0.045449 0.4166768
vt 0.045449 0.4999898
vt 5.548651E-06 0.4999898
vt 5.548651E-06 0.6666769
vt 0.045449 0.6666769
vt 0.045449 0.7499899
vt 5.548651E-06 0.7499899

# Normal
vn 0 0 -1

# Groups (Count = 1)

g mesh_0001
f 1/1/1 2/2/1 3/3/1 4/4/1
f 2/1/1 5/2/1 6/3/1 3/4/1
f 5/1/1 7/2/1 8/3/1 6/4/1
f 7/1/1 9/2/1 10/3/1 8/4/1
f 9/1/1 11/2/1 12/3/1 10/4/1
f 11/1/1 13/2/1 14/3/1 12/4/1
f 13/1/1 15/2/1 16/3/1 14/4/1
f 15/1/1 17/2/1 18/3/1 16/4/1
f 17/1/1 19/2/1 20/3/1 18/4/1
f 19/1/1 21/2/1 22/3/1 20/4/1
f 21/1/1 23/2/1 24/3/1 22/4/1
f 23/1/1 25/2/1 26/3/1 24/4/1
f 25/1/1 27/2/1 28/3/1 26/4/1
f 27/1/1 29/2/1 30/3/1 28/4/1
f 29/1/1 31/2/1 32/3/1 30/4/1
f 31/1/1 33/2/1 34/3/1 32/4/1
f 33/1/1 35/2/1 36/3/1 34/4/1
f 35/1/1 37/2/1 38/3/1 36/4/1
f 37/1/1 39/2/1 40/3/1 38/4/1
f 39/1/1 41/2/1 42/3/1 40/4/1
f 43/1/1 44/2/1 2/3/1 1/4/1
f 44/5/1 45/6/1 5/7/1 2/8/1
f 45/1/1 46/2/1 7/3/1 5/4/1
f 46/5/1 47/6/1 9/7/1 7/8/1
f 47/5/1 48/6/1 11/7/1 9/8/1
f 48/5/1 49/6/1 13/7/1 11/8/1
f 49/5/1 50/6/1 15/7/1 13/8/1
f 50/5/1 51/6/1 17/7/1 15/8/1
f 51/5/1 52/6/1 19/7/1 17/8/1
f 52/5/1 53/6/1 21/7/1 19/8/1
f 53/5/1 54/6/1 23/7/1 21/8/1
f 54/5/1 55/6/1 25/7/1 23/8/1
f 55/5/1 56/6/1 27/7/1 25/8/1
f 56/1/1 57/2/1 29/3/1 27/4/1
f 57/5/1 58/6/1 31/7/1 29/8/1
f 58/5/1 59/6/1 33/7/1 31/8/1
f 59/5/1 60/6/1 35/7/1 33/8/1
f 60/5/1 61/6/1 37/7/1 35/8/1
f 61/5/1 62/6/1 39/7/1 37/8/1
f 62/1/1 63/2/1 41/3/1 39/4/1
f 64/5/1 65/6/1 44/7/1 43/8/1
f 65/5/1 66/6/1 45/7/1 44/8/1
f 66/1/1 67/2/1 46/3/1 45/4/1
f 67/5/1 68/6/1 47/7/1 46/8/1
f 68/5/1 69/6/1 48/7/1 47/8/1
f 69/5/1 70/6/1 49/7/1 48/8/1
f 70/1/1 71/2/1 50/3/1 49/4/1
f 71/1/1 72/2/1 51/3/1 50/4/1
f 72/1/1 73/2/1 52/3/1 51/4/1
f 73/5/1 74/6/1 53/7/1 52/8/1
f 74/5/1 75/6/1 54/7/1 53/8/1
f 75/5/1 76/6/1 55/7/1 54/8/1
f 76/5/1 77/6/1 56/7/1 55/8/1
f 77/1/1 78/2/1 57/3/1 56/4/1
f 78/5/1 79/6/1 58/7/1 57/8/1
f 79/5/1 80/6/1 59/7/1 58/8/1
f 80/5/1 81/6/1 60/7/1 59/8/1
f 81/1/1 82/2/1 61/3/1 60/4/1
f 82/5/1 83/6/1 62/7/1 61/8/1
f 83/1/1 84/2/1 63/3/1 62/4/1
f 85/1/1 86/2/1 65/3/1 64/4/1
f 86/5/1 87/6/1 66/7/1 65/8/1
f 87/5/1 88/6/1 67/7/1 66/8/1
f 88/5/1 89/6/1 68/7/1 67/8/1
f 89/1/1 90/2/1 69/3/1 68/4/1
f 90/5/1 91/6/1 70/7/1 69/8/1
f 91/5/1 92/6/1 71/7/1 70/8/1
f 92/5/1 93/6/1 72/7/1 71/8/1
f 93/5/1 94/6/1 73/7/1 72/8/1
f 94/1/1 95/2/1 74/3/1 73/4/1
f 95/5/1 96/6/1 75/7/1 74/8/1
f 96/5/1 97/6/1 76/7/1 75/8/1
f 97/5/1 98/6/1 77/7/1 76/8/1
f 98/1/1 99/2/1 78/3/1 77/4/1
f 99/1/1 100/2/1 79/3/1 78/4/1
f 100/1/1 101/2/1 80/3/1 79/4/1
f 101/5/1 102/6/1 81/7/1 80/8/1
f 102/1/1 103/2/1 82/3/1 81/4/1
f 103/5/1 104/6/1 83/7/1 82/8/1
f 104/1/1 105/2/1 84/3/1 83/4/1
f 106/1/1 107/2/1 86/3/1 85/4/1
f 107/1/1 108/2/1 87/3/1 86/4/1
f 108/1/1 109/2/1 88/3/1 87/4/1
f 109/1/1 110/2/1 89/3/1 88/4/1
f 110/1/1 111/2/1 90/3/1 89/4/1
f 111/5/1 112/6/1 91/7/1 90/8/1
f 112/5/1 113/6/1 92/7/1 91/8/1
f 113/1/1 114/2/1 93/3/1 92/4/1
f 114/5/1 115/6/1 94/7/1 93/8/1
f 115/1/1 116/2/1 95/3/1 94/4/1
f 116/1/1 117/2/1 96/3/1 95/4/1
f 117/1/1 118/2/1 97/3/1 96/4/1
f 118/5/1 119/6/1 98/7/1 97/8/1
f 119/5/1 120/6/1 99/7/1 98/8/1
f 120/5/1 121/6/1 100/7/1 99/8/1
f 121/5/1 122/6/1 101/7/1 100/8/1
f 122/5/1 123/6/1 102/7/1 101/8/1
f 123/1/1 124/2/1 103/3/1 102/4/1
f 124/5/1 125/6/1 104/7/1 103/8/1
f 125/1/1 126/2/1 105/3/1 104/4/1
f 127/1/1 128/2/1 107/3/1 106/4/1
f 128/5/1 129/6/1 108/7/1 107/8/1
f 129/5/1 130/6/1 109/7/1 108/8/1
f 130/5/1 131/6/1 110/7/1 109/8/1
f 131/1/1 132/2/1 111/3/1 110/4/1
f 132/1/1 133/2/1 112/3/1 111/4/1
f 133/5/1 134/6/1 113/7/1 112/8/1
f 134/1/1 135/2/1 114/3/1 113/4/1
f 135/1/1 136/2/1 115/3/1 114/4/1
f 136/1/1 137/2/1 116/3/1 115/4/1
f 137/1/1 138/2/1 117/3/1 116/4/1
f 138/5/1 139/6/1 118/7/1 117/8/1
f 139/5/1 140/6/1 119/7/1 118/8/1
f 140/5/1 141/6/1 120/7/1 119/8/1
f 141/5/1 142/6/1 121/7/1 120/8/1
f 142/5/1 143/6/1 122/7/1 121/8/1
f 143/5/1 144/6/1 123/7/1 122/8/1
f 144/1/1 145/2/1 124/3/1 123/4/1
f 145/5/1 146/6/1 125/7/1 124/8/1
f 146/1/1 147/2/1 126/3/1 125/4/1
f 148/1/1 149/2/1 128/3/1 127/4/1
f 149/5/1 150/6/1 129/7/1 128/8/1
f 150/1/1 151/2/1 130/3/1 129/4/1
f 151/5/1 152/6/1 131/7/1 130/8/1
f 152/1/1 153/2/1 132/3/1 131/4/1
f 153/1/1 154/2/1 133/3/1 132/4/1
f 154/1/1 155/2/1 134/3/1 133/4/1
f 155/1/1 156/2/1 135/3/1 134/4/1
f 156/5/1 157/6/1 136/7/1 135/8/1
f 157/5/1 158/6/1 137/7/1 136/8/1
f 158/5/1 159/6/1 138/7/1 137/8/1
f 159/5/1 160/6/1 139/7/1 138/8/1
f 160/5/1 161/6/1 140/7/1 139/8/1
f 161/5/1 162/6/1 141/7/1 140/8/1
f 162/5/1 163/6/1 142/7/1 141/8/1
f 163/1/1 164/2/1 143/3/1 142/4/1
f 164/1/1 165/2/1 144/3/1 143/4/1
f 165/1/1 166/2/1 145/3/1 144/4/1
f 166/5/1 167/6/1 146/7/1 145/8/1
f 167/1/1 168/2/1 147/3/1 146/4/1
f 169/1/1 170/2/1 149/3/1 148/4/1
f 170/5/1 171/6/1 150/7/1 149/8/1
f 171/1/1 172/2/1 151/3/1 150/4/1
f 172/1/1 173/2/1 152/3/1 151/4/1
f 173/1/1 174/2/1 153/3/1 152/4/1
f 174/1/1 175/2/1 154/3/1 153/4/1
f 175/5/1 176/6/1 155/7/1 154/8/1
f 176/5/1 177/6/1 156/7/1 155/8/1
f 177/5/1 178/6/1 157/7/1 156/8/1
f 178/1/1 179/2/1 158/3/1 157/4/1
f 179/1/1 180/2/1 159/3/1 158/4/1
f 180/1/1 181/2/1 160/3/1 159/4/1
f 181/5/1 182/6/1 161/7/1 160/8/1
f 182/5/1 183/6/1 162/7/1 161/8/1
f 183/5/1 184/6/1 163/7/1 162/8/1
f 184/1/1 185/2/1 164/3/1 163/4/1
f 185/5/1 186/6/1 165/7/1 164/8/1
f 186/1/1 187/2/1 166/3/1 165/4/1
f 187/5/1 188/6/1 167/7/1 166/8/1
f 188/1/1 189/2/1 168/3/1 167/4/1
f 190/1/1 191/2/1 170/3/1 169/4/1
f 191/5/1 192/6/1 171/7/1 170/8/1
f 192/5/1 193/6/1 172/7/1 171/8/1
f 193/5/1 194/6/1 173/7/1 172/8/1
f 194/5/1 195/6/1 174/7/1 173/8/1
f 195/1/1 196/2/1 175/3/1 174/4/1
f 196/1/1 197/2/1 176/3/1 175/4/1
f 197/1/1 198/2/1 177/3/1 176/4/1
f 198/1/1 199/2/1 178/3/1 177/4/1
f 199/1/1 200/2/1 179/3/1 178/4/1
f 200/5/1 201/6/1 180/7/1 179/8/1
f 201/1/1 202/2/1 181/3/1 180/4/1
f 202/5/1 203/6/1 182/7/1 181/8/1
f 203/1/1 204/2/1 183/3/1 182/4/1
f 204/1/1 205/2/1 184/3/1 183/4/1
f 205/1/1 206/2/1 185/3/1 184/4/1
f 206/5/1 207/6/1 186/7/1 185/8/1
f 207/5/1 208/6/1 187/7/1 186/8/1
f 208/5/1 209/6/1 188/7/1 187/8/1
f 209/1/1 210/2/1 189/3/1 188/4/1
f 211/1/1 212/2/1 191/3/1 190/4/1
f 212/1/1 213/2/1 192/3/1 191/4/1
f 213/1/1 214/2/1 193/3/1 192/4/1
f 214/5/1 215/6/1 194/7/1 193/8/1
f 215/5/1 216/6/1 195/7/1 194/8/1
f 216/5/1 217/6/1 196/7/1 195/8/1
f 217/5/1 218/6/1 197/7/1 196/8/1
f 218/5/1 219/6/1 198/7/1 197/8/1
f 219/5/1 220/6/1 199/7/1 198/8/1
f 220/5/1 221/6/1 200/7/1 199/8/1
f 221/5/1 222/6/1 201/7/1 200/8/1
f 222/1/1 223/2/1 202/3/1 201/4/1
f 223/5/1 224/6/1 203/7/1 202/8/1
f 224/5/1 225/6/1 204/7/1 203/8/1
f 225/5/1 226/6/1 205/7/1 204/8/1
f 226/1/1 227/2/1 206/3/1 205/4/1
f 227/1/1 228/2/1 207/3/1 206/4/1
f 228/1/1 229/2/1 208/3/1 207/4/1
f 229/1/1 230/2/1 209/3/1 208/4/1
f 230/1/1 231/2/1 210/3/1 209/4/1
f 232/1/1 233/2/1 212/3/1 211/4/1
f 233/5/1 234/6/1 213/7/1 212/8/1
f 234/5/1 235/6/1 214/7/1 213/8/1
f 235/5/1 236/6/1 215/7/1 214/8/1
f 236/1/1 237/2/1 216/3/1 215/4/1
f 237/1/1 238/2/1 217/3/1 216/4/1
f 238/1/1 239/2/1 218/3/1 217/4/1
f 239/1/1 240/2/1 219/3/1 218/4/1
f 240/5/1 241/6/1 220/7/1 219/8/1
f 241/1/1 242/2/1 221/3/1 220/4/1
f 242/1/1 243/2/1 222/3/1 221/4/1
f 243/1/1 244/2/1 223/3/1 222/4/1
f 244/5/1 245/6/1 224/7/1 223/8/1
f 245/5/1 246/6/1 225/7/1 224/8/1
f 246/5/1 247/6/1 226/7/1 225/8/1
f 247/5/1 248/6/1 227/7/1 226/8/1
f 248/1/1 249/2/1 228/3/1 227/4/1
f 249/1/1 250/2/1 229/3/1 228/4/1
f 250/1/1 251/2/1 230/3/1 229/4/1
f 251/1/1 252/2/1 231/3/1 230/4/1
f 253/1/1 254/2/1 233/3/1 232/4/1
f 254/5/1 255/6/1 234/7/1 233/8/1
f 255/1/1 256/2/1 235/3/1 234/4/1
f 256/1/1 257/2/1 236/3/1 235/4/1
f 257/1/1 258/2/1 237/3/1 236/4/1
f 258/5/1 259/6/1 238/7/1 237/8/1
f 259/5/1 260/6/1 239/7/1 238/8/1
f 260/5/1 261/6/1 240/7/1 239/8/1
f 261/5/1 262/6/1 241/7/1 240/8/1
f 262/1/1 263/2/1 242/3/1 241/4/1
f 263/5/1 264/6/1 243/7/1 242/8/1
f 264/5/1 265/6/1 244/7/1 243/8/1
f 265/5/1 266/6/1 245/7/1 244/8/1
f 266/1/1 267/2/1 246/3/1 245/4/1
f 267/1/1 268/2/1 247/3/1 246/4/1
f 268/5/1 269/6/1 248/7/1 247/8/1
f 269/1/1 270/2/1 249/3/1 248/4/1
f 270/5/1 271/6/1 250/7/1 249/8/1
f 271/5/1 272/6/1 251/7/1 250/8/1
f 272/1/1 273/2/1 252/3/1 251/4/1
f 274/1/1 275/2/1 254/3/1 253/4/1
f 275/5/1 276/6/1 255/7/1 254/8/1
f 276/1/1 277/2/1 256/3/1 255/4/1
f 277/5/1 278/6/1 257/7/1 256/8/1
f 278/1/1 279/2/1 258/3/1 257/4/1
f 279/5/1 280/6/1 259/7/1 258/8/1
f 280/5/1 281/6/1 260/7/1 259/8/1
f 281/5/1 282/6/1 261/7/1 260/8/1
f 282/5/1 283/6/1 262/7/1 261/8/1
f 283/1/1 284/2/1 263/3/1 262/4/1
f 284/1/1 285/2/1 264/3/1 263/4/1
f 285/1/1 286/2/1 265/3/1 264/4/1
f 286/1/1 287/2/1 266/3/1 265/4/1
f 287/1/1 288/2/1 267/3/1 266/4/1
f 288/1/1 289/2/1 268/3/1 267/4/1
f 289/5/1 290/6/1 269/7/1 268/8/1
f 290/5/1 291/6/1 270/7/1 269/8/1
f 291/5/1 292/6/1 271/7/1 270/8/1
f 292/5/1 293/6/1 272/7/1 271/8/1
f 293/1/1 294/2/1 273/3/1 272/4/1
f 295/1/1 296/2/1 275/3/1 274/4/1
f 296/5/1 297/6/1 276/7/1 275/8/1
f 297/1/1 298/2/1 277/3/1 276/4/1
f 298/5/1 299/6/1 278/7/1 277/8/1
f 299/1/1 300/2/1 279/3/1 278/4/1
f 300/1/1 301/2/1 280/3/1 279/4/1
f 301/1/1 302/2/1 281/3/1 280/4/1
f 302/1/1 303/2/1 282/3/1 281/4/1
f 303/5/1 304/6/1 283/7/1 282/8/1
f 304/5/1 305/6/1 284/7/1 283/8/1
f 305/5/1 306/6/1 285/7/1 284/8/1
f 306/1/1 307/2/1 286/3/1 285/4/1
f 307/5/1 308/6/1 287/7/1 286/8/1
f 308/5/1 309/6/1 288/7/1 287/8/1
f 309/5/1 310/6/1 289/7/1 288/8/1
f 310/5/1 311/6/1 290/7/1 289/8/1
f 311/1/1 312/2/1 291/3/1 290/4/1
f 312/1/1 313/2/1 292/3/1 291/4/1
f 313/1/1 314/2/1 293/3/1 292/4/1
f 314/1/1 315/2/1 294/3/1 293/4/1
f 316/1/1 317/2/1 296/3/1 295/4/1
f 317/5/1 318/6/1 297/7/1 296/8/1
f 318/1/1 319/2/1 298/3/1 297/4/1
f 319/5/1 320/6/1 299/7/1 298/8/1
f 320/1/1 321/2/1 300/3/1 299/4/1
f 321/1/1 322/2/1 301/3/1 300/4/1
f 322/5/1 323/6/1 302/7/1 301/8/1
f 323/1/1 324/2/1 303/3/1 302/4/1
f 324/5/1 325/6/1 304/7/1 303/8/1
f 325/1/1 326/2/1 305/3/1 304/4/1
f 326/5/1 327/6/1 306/7/1 305/8/1
f 327/1/1 328/2/1 307/3/1 306/4/1
f 328/1/1 329/2/1 308/3/1 307/4/1
f 329/1/1 330/2/1 309/3/1 308/4/1
f 330/1/1 331/2/1 310/3/1 309/4/1
f 331/5/1 332/6/1 311/7/1 310/8/1
f 332/1/1 333/2/1 312/3/1 311/4/1
f 333/5/1 334/6/1 313/7/1 312/8/1
f 334/5/1 335/6/1 314/7/1 313/8/1
f 335/1/1 336/2/1 315/3/1 314/4/1
f 337/1/1 338/2/1 317/3/1 316/4/1
f 338/5/1 339/6/1 318/7/1 317/8/1
f 339/1/1 340/2/1 319/3/1 318/4/1
f 340/5/1 341/6/1 320/7/1 319/8/1
f 341/1/1 342/2/1 321/3/1 320/4/1
f 342/1/1 343/2/1 322/3/1 321/4/1
f 343/5/1 344/6/1 323/7/1 322/8/1
f 344/1/1 345/2/1 324/3/1 323/4/1
f 345/5/1 346/6/1 325/7/1 324/8/1
f 346/1/1 347/2/1 326/3/1 325/4/1
f 347/5/1 348/6/1 327/7/1 326/8/1
f 348/5/1 349/6/1 328/7/1 327/8/1
f 349/5/1 350/6/1 329/7/1 328/8/1
f 350/5/1 351/6/1 330/7/1 329/8/1
f 351/1/1 352/2/1 331/3/1 330/4/1
f 352/5/1 353/6/1 332/7/1 331/8/1
f 353/1/1 354/2/1 333/3/1 332/4/1
f 354/1/1 355/2/1 334/3/1 333/4/1
f 355/1/1 356/2/1 335/3/1 334/4/1
f 356/1/1 357/2/1 336/3/1 335/4/1
f 358/1/1 359/2/1 338/3/1 337/4/1
f 359/5/1 360/6/1 339/7/1 338/8/1
f 360/5/1 361/6/1 340/7/1 339/8/1
f 361/5/1 362/6/1 341/7/1 340/8/1
f 362/5/1 363/6/1 342/7/1 341/8/1
f 363/1/1 364/2/1 343/3/1 342/4/1
f 364/5/1 365/6/1 344/7/1 343/8/1
f 365/1/1 366/2/1 345/3/1 344/4/1
f 366/5/1 367/6/1 346/7/1 345/8/1
f 367/1/1 368/2/1 347/3/1 346/4/1
f 368/1/1 369/2/1 348/3/1 347/4/1
f 369/1/1 370/2/1 349/3/1 348/4/1
f 370/1/1 371/2/1 350/3/1 349/4/1
f 371/5/1 372/6/1 351/7/1 350/8/1
f 372/5/1 373/6/1 352/7/1 351/8/1
f 373/5/1 374/6/1 353/7/1 352/8/1
f 374/1/1 375/2/1 354/3/1 353/4/1
f 375/5/1 376/6/1 355/7/1 354/8/1
f 376/5/1 377/6/1 356/7/1 355/8/1
f 377/1/1 378/2/1 357/3/1 356/4/1
f 379/1/1 380/2/1 359/3/1 358/4/1
f 380/1/1 381/2/1 360/3/1 359/4/1
f 381/1/1 382/2/1 361/3/1 360/4/1
f 382/1/1 383/2/1 362/3/1 361/4/1
f 383/1/1 384/2/1 363/3/1 362/4/1
f 384/1/1 385/2/1 364/3/1 363/4/1
f 385/5/1 386/6/1 365/7/1 364/8/1
f 386/1/1 387/2/1 366/3/1 365/4/1
f 387/5/1 388/6/1 367/7/1 366/8/1
f 388/1/1 389/2/1 368/3/1 367/4/1
f 389/1/1 390/2/1 369/3/1 368/4/1
f 390/1/1 391/2/1 370/3/1 369/4/1
f 391/1/1 392/2/1 371/3/1 370/4/1
f 392/1/1 393/2/1 372/3/1 371/4/1
f 393/1/1 394/2/1 373/3/1 372/4/1
f 394/5/1 395/6/1 374/7/1 373/8/1
f 395/1/1 396/2/1 375/3/1 374/4/1
f 396/1/1 397/2/1 376/3/1 375/4/1
f 397/5/1 398/6/1 377/7/1 376/8/1
f 398/1/1 399/2/1 378/3/1 377/4/1
f 400/1/1 401/2/1 380/3/1 379/4/1
f 401/5/1 402/6/1 381/7/1 380/8/1
f 402/5/1 403/6/1 382/7/1 381/8/1
f 403/5/1 404/6/1 383/7/1 382/8/1
f 404/5/1 405/6/1 384/7/1 383/8/1
f 405/5/1 406/6/1 385/7/1 384/8/1
f 406/5/1 407/6/1 386/7/1 385/8/1
f 407/5/1 408/6/1 387/7/1 386/8/1
f 408/5/1 409/6/1 388/7/1 387/8/1
f 409/1/1 410/2/1 389/3/1 388/4/1
f 410/5/1 411/6/1 390/7/1 389/8/1
f 411/5/1 412/6/1 391/7/1 390/8/1
f 412/5/1 413/6/1 392/7/1 391/8/1
f 413/5/1 414/6/1 393/7/1 392/8/1
f 414/5/1 415/6/1 394/7/1 393/8/1
f 415/5/1 416/6/1 395/7/1 394/8/1
f 416/5/1 417/6/1 396/7/1 395/8/1
f 417/5/1 418/6/1 397/7/1 396/8/1
f 418/5/1 419/6/1 398/7/1 397/8/1
f 419/1/1 420/2/1 399/3/1 398/4/1
f 421/1/1 422/2/1 401/3/1 400/4/1
f 422/1/1 423/2/1 402/3/1 401/4/1
f 423/1/1 424/2/1 403/3/1 402/4/1
f 424/1/1 425/2/1 404/3/1 403/4/1
f 425/1/1 426/2/1 405/3/1 404/4/1
f 426/1/1 427/2/1 406/3/1 405/4/1
f 427/1/1 428/2/1 407/3/1 406/4/1
f 428/1/1 429/2/1 408/3/1 407/4/1
f 429/5/1 430/6/1 409/7/1 408/8/1
f 430/1/1 431/2/1 410/3/1 409/4/1
f 431/1/1 432/2/1 411/3/1 410/4/1
f 432/1/1 433/2/1 412/3/1 411/4/1
f 433/1/1 434/2/1 413/3/1 412/4/1
f 434/1/1 435/2/1 414/3/1 413/4/1
f 435/1/1 436/2/1 415/3/1 414/4/1
f 436/1/1 437/2/1 416/3/1 415/4/1
f 437/1/1 438/2/1 417/3/1 416/4/1
f 438/1/1 439/2/1 418/3/1 417/4/1
f 439/1/1 440/2/1 419/3/1 418/4/1
f 440/1/1 441/2/1 420/3/1 419/4/1

