# Wavefront OBJ file automatically generated by Tiled2Unity

# Vertices (Count = 336)
v 0 -64 0
v -64 -64 0
v -64 0 0
v 0 0 0
v -128 -64 0
v -128 0 0
v -192 -64 0
v -192 0 0
v -256 -64 0
v -256 0 0
v -320 -64 0
v -320 0 0
v -384 -64 0
v -384 0 0
v -448 -64 0
v -448 0 0
v -512 -64 0
v -512 0 0
v -576 -64 0
v -576 0 0
v -640 -64 0
v -640 0 0
v -704 -64 0
v -704 0 0
v -768 -64 0
v -768 0 0
v -832 -64 0
v -832 0 0
v -896 -64 0
v -896 0 0
v -960 -64 0
v -960 0 0
v -1024 -64 0
v -1024 0 0
v -1088 -64 0
v -1088 0 0
v -1152 -64 0
v -1152 0 0
v -1216 -64 0
v -1216 0 0
v -1280 -64 0
v -1280 0 0
v 0 -128 0
v -64 -128 0
v -128 -128 0
v -192 -128 0
v -256 -128 0
v -320 -128 0
v -384 -128 0
v -448 -128 0
v -512 -128 0
v -576 -128 0
v -640 -128 0
v -704 -128 0
v -768 -128 0
v -832 -128 0
v -896 -128 0
v -960 -128 0
v -1024 -128 0
v -1088 -128 0
v -1152 -128 0
v -1216 -128 0
v -1280 -128 0
v 0 -192 0
v -64 -192 0
v -128 -192 0
v -192 -192 0
v -256 -192 0
v -320 -192 0
v -384 -192 0
v -448 -192 0
v -512 -192 0
v -576 -192 0
v -640 -192 0
v -704 -192 0
v -768 -192 0
v -832 -192 0
v -896 -192 0
v -960 -192 0
v -1024 -192 0
v -1088 -192 0
v -1152 -192 0
v -1216 -192 0
v -1280 -192 0
v 0 -256 0
v -64 -256 0
v -128 -256 0
v -192 -256 0
v -256 -256 0
v -320 -256 0
v -384 -256 0
v -448 -256 0
v -512 -256 0
v -576 -256 0
v -640 -256 0
v -704 -256 0
v -768 -256 0
v -832 -256 0
v -896 -256 0
v -960 -256 0
v -1024 -256 0
v -1088 -256 0
v -1152 -256 0
v -1216 -256 0
v -1280 -256 0
v 0 -320 0
v -64 -320 0
v -128 -320 0
v -192 -320 0
v -256 -320 0
v -320 -320 0
v -384 -320 0
v -448 -320 0
v -512 -320 0
v -576 -320 0
v -640 -320 0
v -704 -320 0
v -768 -320 0
v -832 -320 0
v -896 -320 0
v -960 -320 0
v -1024 -320 0
v -1088 -320 0
v -1152 -320 0
v -1216 -320 0
v -1280 -320 0
v 0 -384 0
v -64 -384 0
v -128 -384 0
v -192 -384 0
v -256 -384 0
v -320 -384 0
v -384 -384 0
v -448 -384 0
v -512 -384 0
v -576 -384 0
v -640 -384 0
v -704 -384 0
v -768 -384 0
v -832 -384 0
v -896 -384 0
v -960 -384 0
v -1024 -384 0
v -1088 -384 0
v -1152 -384 0
v -1216 -384 0
v -1280 -384 0
v 0 -448 0
v -64 -448 0
v -128 -448 0
v -192 -448 0
v -256 -448 0
v -320 -448 0
v -384 -448 0
v -448 -448 0
v -512 -448 0
v -576 -448 0
v -640 -448 0
v -704 -448 0
v -768 -448 0
v -832 -448 0
v -896 -448 0
v -960 -448 0
v -1024 -448 0
v -1088 -448 0
v -1152 -448 0
v -1216 -448 0
v -1280 -448 0
v 0 -512 0
v -64 -512 0
v -128 -512 0
v -192 -512 0
v -256 -512 0
v -320 -512 0
v -384 -512 0
v -448 -512 0
v -512 -512 0
v -576 -512 0
v -640 -512 0
v -704 -512 0
v -768 -512 0
v -832 -512 0
v -896 -512 0
v -960 -512 0
v -1024 -512 0
v -1088 -512 0
v -1152 -512 0
v -1216 -512 0
v -1280 -512 0
v 0 -576 0
v -64 -576 0
v -128 -576 0
v -192 -576 0
v -256 -576 0
v -320 -576 0
v -384 -576 0
v -448 -576 0
v -512 -576 0
v -576 -576 0
v -640 -576 0
v -704 -576 0
v -768 -576 0
v -832 -576 0
v -896 -576 0
v -960 -576 0
v -1024 -576 0
v -1088 -576 0
v -1152 -576 0
v -1216 -576 0
v -1280 -576 0
v 0 -640 0
v -64 -640 0
v -128 -640 0
v -192 -640 0
v -256 -640 0
v -320 -640 0
v -384 -640 0
v -448 -640 0
v -512 -640 0
v -576 -640 0
v -640 -640 0
v -704 -640 0
v -768 -640 0
v -832 -640 0
v -896 -640 0
v -960 -640 0
v -1024 -640 0
v -1088 -640 0
v -1152 -640 0
v -1216 -640 0
v -1280 -640 0
v 0 -704 0
v -64 -704 0
v -128 -704 0
v -192 -704 0
v -256 -704 0
v -320 -704 0
v -384 -704 0
v -448 -704 0
v -512 -704 0
v -576 -704 0
v -640 -704 0
v -704 -704 0
v -768 -704 0
v -832 -704 0
v -896 -704 0
v -960 -704 0
v -1024 -704 0
v -1088 -704 0
v -1152 -704 0
v -1216 -704 0
v -1280 -704 0
v 0 -768 0
v -64 -768 0
v -128 -768 0
v -192 -768 0
v -256 -768 0
v -320 -768 0
v -384 -768 0
v -448 -768 0
v -512 -768 0
v -576 -768 0
v -640 -768 0
v -704 -768 0
v -768 -768 0
v -832 -768 0
v -896 -768 0
v -960 -768 0
v -1024 -768 0
v -1088 -768 0
v -1152 -768 0
v -1216 -768 0
v -1280 -768 0
v 0 -832 0
v -64 -832 0
v -128 -832 0
v -192 -832 0
v -256 -832 0
v -320 -832 0
v -384 -832 0
v -448 -832 0
v -512 -832 0
v -576 -832 0
v -640 -832 0
v -704 -832 0
v -768 -832 0
v -832 -832 0
v -896 -832 0
v -960 -832 0
v -1024 -832 0
v -1088 -832 0
v -1152 -832 0
v -1216 -832 0
v -1280 -832 0
v 0 -896 0
v -64 -896 0
v -128 -896 0
v -192 -896 0
v -256 -896 0
v -320 -896 0
v -384 -896 0
v -448 -896 0
v -512 -896 0
v -576 -896 0
v -640 -896 0
v -704 -896 0
v -768 -896 0
v -832 -896 0
v -896 -896 0
v -960 -896 0
v -1024 -896 0
v -1088 -896 0
v -1152 -896 0
v -1216 -896 0
v -1280 -896 0
v 0 -960 0
v -64 -960 0
v -128 -960 0
v -192 -960 0
v -256 -960 0
v -320 -960 0
v -384 -960 0
v -448 -960 0
v -512 -960 0
v -576 -960 0
v -640 -960 0
v -704 -960 0
v -768 -960 0
v -832 -960 0
v -896 -960 0
v -960 -960 0
v -1024 -960 0
v -1088 -960 0
v -1152 -960 0
v -1216 -960 0
v -1280 -960 0

# Texture cooridinates (Count = 16)
vt 0.5454601 1.019239E-05
vt 0.5909035 1.019239E-05
vt 0.5909035 0.08332318
vt 0.5454601 0.08332318
vt 0.09091464 0.9166768
vt 0.1363581 0.9166768
vt 0.1363581 0.9999898
vt 0.09091464 0.9999898
vt 5.548651E-06 0.9166768
vt 0.045449 0.9166768
vt 0.045449 0.9999898
vt 5.548651E-06 0.9999898
vt 0.8181874 0.8333435
vt 0.8636308 0.8333435
vt 0.8636308 0.9166565
vt 0.8181874 0.9166565

# Normal
vn 0 0 -1

# Groups (Count = 2)

g mesh_0001
f 1/1/1 2/2/1 3/3/1 4/4/1
f 2/1/1 5/2/1 6/3/1 3/4/1
f 5/1/1 7/2/1 8/3/1 6/4/1
f 7/1/1 9/2/1 10/3/1 8/4/1
f 9/1/1 11/2/1 12/3/1 10/4/1
f 11/1/1 13/2/1 14/3/1 12/4/1
f 13/1/1 15/2/1 16/3/1 14/4/1
f 15/1/1 17/2/1 18/3/1 16/4/1
f 17/1/1 19/2/1 20/3/1 18/4/1
f 19/1/1 21/2/1 22/3/1 20/4/1
f 21/1/1 23/2/1 24/3/1 22/4/1
f 23/1/1 25/2/1 26/3/1 24/4/1
f 25/1/1 27/2/1 28/3/1 26/4/1
f 27/1/1 29/2/1 30/3/1 28/4/1
f 29/1/1 31/2/1 32/3/1 30/4/1
f 31/1/1 33/2/1 34/3/1 32/4/1
f 33/1/1 35/2/1 36/3/1 34/4/1
f 35/1/1 37/2/1 38/3/1 36/4/1
f 37/1/1 39/2/1 40/3/1 38/4/1
f 39/1/1 41/2/1 42/3/1 40/4/1
f 43/1/1 44/2/1 2/3/1 1/4/1
f 44/1/1 45/2/1 5/3/1 2/4/1
f 45/1/1 46/2/1 7/3/1 5/4/1
f 46/1/1 47/2/1 9/3/1 7/4/1
f 47/1/1 48/2/1 11/3/1 9/4/1
f 48/1/1 49/2/1 13/3/1 11/4/1
f 49/1/1 50/2/1 15/3/1 13/4/1
f 50/1/1 51/2/1 17/3/1 15/4/1
f 51/1/1 52/2/1 19/3/1 17/4/1
f 52/1/1 53/2/1 21/3/1 19/4/1
f 53/1/1 54/2/1 23/3/1 21/4/1
f 54/1/1 55/2/1 25/3/1 23/4/1
f 55/1/1 56/2/1 27/3/1 25/4/1
f 56/1/1 57/2/1 29/3/1 27/4/1
f 57/1/1 58/2/1 31/3/1 29/4/1
f 58/1/1 59/2/1 33/3/1 31/4/1
f 59/1/1 60/2/1 35/3/1 33/4/1
f 60/1/1 61/2/1 37/3/1 35/4/1
f 61/1/1 62/2/1 39/3/1 37/4/1
f 62/1/1 63/2/1 41/3/1 39/4/1
f 64/1/1 65/2/1 44/3/1 43/4/1
f 65/1/1 66/2/1 45/3/1 44/4/1
f 66/1/1 67/2/1 46/3/1 45/4/1
f 67/1/1 68/2/1 47/3/1 46/4/1
f 68/1/1 69/2/1 48/3/1 47/4/1
f 69/1/1 70/2/1 49/3/1 48/4/1
f 70/1/1 71/2/1 50/3/1 49/4/1
f 71/1/1 72/2/1 51/3/1 50/4/1
f 72/1/1 73/2/1 52/3/1 51/4/1
f 73/1/1 74/2/1 53/3/1 52/4/1
f 74/1/1 75/2/1 54/3/1 53/4/1
f 75/1/1 76/2/1 55/3/1 54/4/1
f 76/1/1 77/2/1 56/3/1 55/4/1
f 77/1/1 78/2/1 57/3/1 56/4/1
f 78/1/1 79/2/1 58/3/1 57/4/1
f 79/1/1 80/2/1 59/3/1 58/4/1
f 80/1/1 81/2/1 60/3/1 59/4/1
f 81/1/1 82/2/1 61/3/1 60/4/1
f 82/1/1 83/2/1 62/3/1 61/4/1
f 83/1/1 84/2/1 63/3/1 62/4/1
f 85/1/1 86/2/1 65/3/1 64/4/1
f 86/1/1 87/2/1 66/3/1 65/4/1
f 87/1/1 88/2/1 67/3/1 66/4/1
f 88/1/1 89/2/1 68/3/1 67/4/1
f 89/1/1 90/2/1 69/3/1 68/4/1
f 90/1/1 91/2/1 70/3/1 69/4/1
f 91/1/1 92/2/1 71/3/1 70/4/1
f 92/1/1 93/2/1 72/3/1 71/4/1
f 93/1/1 94/2/1 73/3/1 72/4/1
f 94/1/1 95/2/1 74/3/1 73/4/1
f 95/1/1 96/2/1 75/3/1 74/4/1
f 96/1/1 97/2/1 76/3/1 75/4/1
f 97/1/1 98/2/1 77/3/1 76/4/1
f 98/1/1 99/2/1 78/3/1 77/4/1
f 99/1/1 100/2/1 79/3/1 78/4/1
f 100/1/1 101/2/1 80/3/1 79/4/1
f 101/1/1 102/2/1 81/3/1 80/4/1
f 102/1/1 103/2/1 82/3/1 81/4/1
f 103/1/1 104/2/1 83/3/1 82/4/1
f 104/1/1 105/2/1 84/3/1 83/4/1
f 106/1/1 107/2/1 86/3/1 85/4/1
f 107/1/1 108/2/1 87/3/1 86/4/1
f 108/1/1 109/2/1 88/3/1 87/4/1
f 109/1/1 110/2/1 89/3/1 88/4/1
f 110/1/1 111/2/1 90/3/1 89/4/1
f 111/1/1 112/2/1 91/3/1 90/4/1
f 112/1/1 113/2/1 92/3/1 91/4/1
f 113/1/1 114/2/1 93/3/1 92/4/1
f 114/1/1 115/2/1 94/3/1 93/4/1
f 115/1/1 116/2/1 95/3/1 94/4/1
f 116/1/1 117/2/1 96/3/1 95/4/1
f 117/1/1 118/2/1 97/3/1 96/4/1
f 118/1/1 119/2/1 98/3/1 97/4/1
f 119/1/1 120/2/1 99/3/1 98/4/1
f 120/1/1 121/2/1 100/3/1 99/4/1
f 121/1/1 122/2/1 101/3/1 100/4/1
f 122/1/1 123/2/1 102/3/1 101/4/1
f 123/1/1 124/2/1 103/3/1 102/4/1
f 124/1/1 125/2/1 104/3/1 103/4/1
f 125/1/1 126/2/1 105/3/1 104/4/1
f 127/1/1 128/2/1 107/3/1 106/4/1
f 128/1/1 129/2/1 108/3/1 107/4/1
f 129/1/1 130/2/1 109/3/1 108/4/1
f 130/1/1 131/2/1 110/3/1 109/4/1
f 131/1/1 132/2/1 111/3/1 110/4/1
f 132/1/1 133/2/1 112/3/1 111/4/1
f 133/1/1 134/2/1 113/3/1 112/4/1
f 134/1/1 135/2/1 114/3/1 113/4/1
f 135/1/1 136/2/1 115/3/1 114/4/1
f 136/1/1 137/2/1 116/3/1 115/4/1
f 137/1/1 138/2/1 117/3/1 116/4/1
f 138/1/1 139/2/1 118/3/1 117/4/1
f 139/1/1 140/2/1 119/3/1 118/4/1
f 140/1/1 141/2/1 120/3/1 119/4/1
f 141/1/1 142/2/1 121/3/1 120/4/1
f 142/1/1 143/2/1 122/3/1 121/4/1
f 143/1/1 144/2/1 123/3/1 122/4/1
f 144/1/1 145/2/1 124/3/1 123/4/1
f 145/1/1 146/2/1 125/3/1 124/4/1
f 146/1/1 147/2/1 126/3/1 125/4/1
f 148/1/1 149/2/1 128/3/1 127/4/1
f 149/1/1 150/2/1 129/3/1 128/4/1
f 150/1/1 151/2/1 130/3/1 129/4/1
f 151/1/1 152/2/1 131/3/1 130/4/1
f 152/1/1 153/2/1 132/3/1 131/4/1
f 153/1/1 154/2/1 133/3/1 132/4/1
f 154/1/1 155/2/1 134/3/1 133/4/1
f 155/1/1 156/2/1 135/3/1 134/4/1
f 156/1/1 157/2/1 136/3/1 135/4/1
f 157/1/1 158/2/1 137/3/1 136/4/1
f 158/1/1 159/2/1 138/3/1 137/4/1
f 159/1/1 160/2/1 139/3/1 138/4/1
f 160/1/1 161/2/1 140/3/1 139/4/1
f 161/1/1 162/2/1 141/3/1 140/4/1
f 162/1/1 163/2/1 142/3/1 141/4/1
f 163/1/1 164/2/1 143/3/1 142/4/1
f 164/1/1 165/2/1 144/3/1 143/4/1
f 165/1/1 166/2/1 145/3/1 144/4/1
f 166/1/1 167/2/1 146/3/1 145/4/1
f 167/1/1 168/2/1 147/3/1 146/4/1
f 169/1/1 170/2/1 149/3/1 148/4/1
f 170/1/1 171/2/1 150/3/1 149/4/1
f 171/1/1 172/2/1 151/3/1 150/4/1
f 172/1/1 173/2/1 152/3/1 151/4/1
f 173/1/1 174/2/1 153/3/1 152/4/1
f 174/1/1 175/2/1 154/3/1 153/4/1
f 175/1/1 176/2/1 155/3/1 154/4/1
f 176/1/1 177/2/1 156/3/1 155/4/1
f 177/1/1 178/2/1 157/3/1 156/4/1
f 178/1/1 179/2/1 158/3/1 157/4/1
f 179/1/1 180/2/1 159/3/1 158/4/1
f 180/1/1 181/2/1 160/3/1 159/4/1
f 181/1/1 182/2/1 161/3/1 160/4/1
f 182/1/1 183/2/1 162/3/1 161/4/1
f 183/1/1 184/2/1 163/3/1 162/4/1
f 184/1/1 185/2/1 164/3/1 163/4/1
f 185/1/1 186/2/1 165/3/1 164/4/1
f 186/1/1 187/2/1 166/3/1 165/4/1
f 187/1/1 188/2/1 167/3/1 166/4/1
f 188/1/1 189/2/1 168/3/1 167/4/1
f 190/1/1 191/2/1 170/3/1 169/4/1
f 191/1/1 192/2/1 171/3/1 170/4/1
f 192/1/1 193/2/1 172/3/1 171/4/1
f 193/1/1 194/2/1 173/3/1 172/4/1
f 194/1/1 195/2/1 174/3/1 173/4/1
f 195/1/1 196/2/1 175/3/1 174/4/1
f 196/5/1 197/6/1 176/7/1 175/8/1
f 197/5/1 198/6/1 177/7/1 176/8/1
f 198/5/1 199/6/1 178/7/1 177/8/1
f 199/5/1 200/6/1 179/7/1 178/8/1
f 200/5/1 201/6/1 180/7/1 179/8/1
f 201/5/1 202/6/1 181/7/1 180/8/1
f 202/1/1 203/2/1 182/3/1 181/4/1
f 203/1/1 204/2/1 183/3/1 182/4/1
f 204/1/1 205/2/1 184/3/1 183/4/1
f 205/1/1 206/2/1 185/3/1 184/4/1
f 206/1/1 207/2/1 186/3/1 185/4/1
f 207/1/1 208/2/1 187/3/1 186/4/1
f 208/1/1 209/2/1 188/3/1 187/4/1
f 209/1/1 210/2/1 189/3/1 188/4/1
f 211/1/1 212/2/1 191/3/1 190/4/1
f 212/1/1 213/2/1 192/3/1 191/4/1
f 213/1/1 214/2/1 193/3/1 192/4/1
f 214/1/1 215/2/1 194/3/1 193/4/1
f 215/1/1 216/2/1 195/3/1 194/4/1
f 216/1/1 217/2/1 196/3/1 195/4/1
f 217/9/1 218/10/1 197/11/1 196/12/1
f 218/9/1 219/10/1 198/11/1 197/12/1
f 219/9/1 220/10/1 199/11/1 198/12/1
f 220/9/1 221/10/1 200/11/1 199/12/1
f 221/9/1 222/10/1 201/11/1 200/12/1
f 222/9/1 223/10/1 202/11/1 201/12/1
f 223/1/1 224/2/1 203/3/1 202/4/1
f 224/1/1 225/2/1 204/3/1 203/4/1
f 225/1/1 226/2/1 205/3/1 204/4/1
f 226/1/1 227/2/1 206/3/1 205/4/1
f 227/1/1 228/2/1 207/3/1 206/4/1
f 228/1/1 229/2/1 208/3/1 207/4/1
f 229/1/1 230/2/1 209/3/1 208/4/1
f 230/1/1 231/2/1 210/3/1 209/4/1
f 232/1/1 233/2/1 212/3/1 211/4/1
f 233/1/1 234/2/1 213/3/1 212/4/1
f 234/1/1 235/2/1 214/3/1 213/4/1
f 235/1/1 236/2/1 215/3/1 214/4/1
f 236/1/1 237/2/1 216/3/1 215/4/1
f 237/1/1 238/2/1 217/3/1 216/4/1
f 238/9/1 239/10/1 218/11/1 217/12/1
f 239/9/1 240/10/1 219/11/1 218/12/1
f 240/9/1 241/10/1 220/11/1 219/12/1
f 241/9/1 242/10/1 221/11/1 220/12/1
f 242/9/1 243/10/1 222/11/1 221/12/1
f 243/9/1 244/10/1 223/11/1 222/12/1
f 244/5/1 245/6/1 224/7/1 223/8/1
f 245/5/1 246/6/1 225/7/1 224/8/1
f 246/5/1 247/6/1 226/7/1 225/8/1
f 247/5/1 248/6/1 227/7/1 226/8/1
f 248/5/1 249/6/1 228/7/1 227/8/1
f 249/5/1 250/6/1 229/7/1 228/8/1
f 250/5/1 251/6/1 230/7/1 229/8/1
f 251/5/1 252/6/1 231/7/1 230/8/1
f 253/1/1 254/2/1 233/3/1 232/4/1
f 254/1/1 255/2/1 234/3/1 233/4/1
f 255/1/1 256/2/1 235/3/1 234/4/1
f 256/1/1 257/2/1 236/3/1 235/4/1
f 257/1/1 258/2/1 237/3/1 236/4/1
f 258/1/1 259/2/1 238/3/1 237/4/1
f 259/9/1 260/10/1 239/11/1 238/12/1
f 260/9/1 261/10/1 240/11/1 239/12/1
f 261/9/1 262/10/1 241/11/1 240/12/1
f 262/9/1 263/10/1 242/11/1 241/12/1
f 263/9/1 264/10/1 243/11/1 242/12/1
f 264/9/1 265/10/1 244/11/1 243/12/1
f 265/9/1 266/10/1 245/11/1 244/12/1
f 266/9/1 267/10/1 246/11/1 245/12/1
f 267/9/1 268/10/1 247/11/1 246/12/1
f 268/9/1 269/10/1 248/11/1 247/12/1
f 269/9/1 270/10/1 249/11/1 248/12/1
f 270/9/1 271/10/1 250/11/1 249/12/1
f 271/9/1 272/10/1 251/11/1 250/12/1
f 272/9/1 273/10/1 252/11/1 251/12/1
f 274/1/1 275/2/1 254/3/1 253/4/1
f 275/1/1 276/2/1 255/3/1 254/4/1
f 276/1/1 277/2/1 256/3/1 255/4/1
f 277/1/1 278/2/1 257/3/1 256/4/1
f 278/1/1 279/2/1 258/3/1 257/4/1
f 279/1/1 280/2/1 259/3/1 258/4/1
f 280/9/1 281/10/1 260/11/1 259/12/1
f 281/9/1 282/10/1 261/11/1 260/12/1
f 282/9/1 283/10/1 262/11/1 261/12/1
f 283/9/1 284/10/1 263/11/1 262/12/1
f 284/9/1 285/10/1 264/11/1 263/12/1
f 285/9/1 286/10/1 265/11/1 264/12/1
f 286/9/1 287/10/1 266/11/1 265/12/1
f 287/9/1 288/10/1 267/11/1 266/12/1
f 288/9/1 289/10/1 268/11/1 267/12/1
f 289/9/1 290/10/1 269/11/1 268/12/1
f 290/9/1 291/10/1 270/11/1 269/12/1
f 291/9/1 292/10/1 271/11/1 270/12/1
f 292/9/1 293/10/1 272/11/1 271/12/1
f 293/9/1 294/10/1 273/11/1 272/12/1
f 295/1/1 296/2/1 275/3/1 274/4/1
f 296/1/1 297/2/1 276/3/1 275/4/1
f 297/1/1 298/2/1 277/3/1 276/4/1
f 298/1/1 299/2/1 278/3/1 277/4/1
f 299/1/1 300/2/1 279/3/1 278/4/1
f 300/1/1 301/2/1 280/3/1 279/4/1
f 301/9/1 302/10/1 281/11/1 280/12/1
f 302/9/1 303/10/1 282/11/1 281/12/1
f 303/9/1 304/10/1 283/11/1 282/12/1
f 304/9/1 305/10/1 284/11/1 283/12/1
f 305/9/1 306/10/1 285/11/1 284/12/1
f 306/9/1 307/10/1 286/11/1 285/12/1
f 307/9/1 308/10/1 287/11/1 286/12/1
f 308/9/1 309/10/1 288/11/1 287/12/1
f 309/9/1 310/10/1 289/11/1 288/12/1
f 310/9/1 311/10/1 290/11/1 289/12/1
f 311/9/1 312/10/1 291/11/1 290/12/1
f 312/9/1 313/10/1 292/11/1 291/12/1
f 313/9/1 314/10/1 293/11/1 292/12/1
f 314/9/1 315/10/1 294/11/1 293/12/1
f 316/5/1 317/6/1 296/7/1 295/8/1
f 317/5/1 318/6/1 297/7/1 296/8/1
f 318/5/1 319/6/1 298/7/1 297/8/1
f 319/5/1 320/6/1 299/7/1 298/8/1
f 320/5/1 321/6/1 300/7/1 299/8/1
f 321/5/1 322/6/1 301/7/1 300/8/1
f 322/9/1 323/10/1 302/11/1 301/12/1
f 323/9/1 324/10/1 303/11/1 302/12/1
f 324/9/1 325/10/1 304/11/1 303/12/1
f 325/9/1 326/10/1 305/11/1 304/12/1
f 326/9/1 327/10/1 306/11/1 305/12/1
f 327/9/1 328/10/1 307/11/1 306/12/1
f 328/9/1 329/10/1 308/11/1 307/12/1
f 329/9/1 330/10/1 309/11/1 308/12/1
f 330/9/1 331/10/1 310/11/1 309/12/1
f 331/9/1 332/10/1 311/11/1 310/12/1
f 332/9/1 333/10/1 312/11/1 311/12/1
f 333/9/1 334/10/1 313/11/1 312/12/1
f 334/9/1 335/10/1 314/11/1 313/12/1
f 335/9/1 336/10/1 315/11/1 314/12/1

g mesh_0002
f 46/13/1 47/14/1 9/15/1 7/16/1
f 50/13/1 51/14/1 17/15/1 15/16/1
f 54/13/1 55/14/1 25/15/1 23/16/1
f 60/13/1 61/14/1 37/15/1 35/16/1
f 62/13/1 63/14/1 41/15/1 39/16/1
f 65/13/1 66/14/1 45/15/1 44/16/1
f 72/13/1 73/14/1 52/15/1 51/16/1
f 80/13/1 81/14/1 60/15/1 59/16/1
f 88/13/1 89/14/1 68/15/1 67/16/1
f 91/13/1 92/14/1 71/15/1 70/16/1
f 117/13/1 118/14/1 97/15/1 96/16/1
f 118/13/1 119/14/1 98/15/1 97/16/1
f 130/13/1 131/14/1 110/15/1 109/16/1
f 133/13/1 134/14/1 113/15/1 112/16/1
f 144/13/1 145/14/1 124/15/1 123/16/1
f 157/13/1 158/14/1 137/15/1 136/16/1
f 161/13/1 162/14/1 141/15/1 140/16/1
f 185/13/1 186/14/1 165/15/1 164/16/1
f 191/13/1 192/14/1 171/15/1 170/16/1
f 208/13/1 209/14/1 188/15/1 187/16/1
f 215/13/1 216/14/1 195/15/1 194/16/1
f 247/5/1 248/6/1 227/7/1 226/8/1
f 254/13/1 255/14/1 234/15/1 233/16/1
f 278/13/1 279/14/1 258/15/1 257/16/1
f 295/13/1 296/14/1 275/15/1 274/16/1
f 298/13/1 299/14/1 278/15/1 277/16/1

