# Wavefront OBJ file automatically generated by Tiled2Unity

# Vertices (Count = 91)
v -512 -576 0
v -576 -576 0
v -576 -512 0
v -512 -512 0
v -640 -576 0
v -640 -512 0
v -704 -576 0
v -704 -512 0
v -768 -576 0
v -768 -512 0
v -512 -640 0
v -576 -640 0
v -640 -640 0
v -704 -640 0
v -768 -640 0
v -512 -704 0
v -576 -704 0
v -640 -704 0
v -704 -704 0
v -768 -704 0
v -832 -704 0
v -832 -640 0
v -512 -768 0
v -576 -768 0
v -640 -768 0
v -704 -768 0
v -768 -768 0
v -832 -768 0
v -512 -832 0
v -576 -832 0
v -640 -832 0
v -704 -832 0
v -768 -832 0
v -832 -832 0
v 0 -896 0
v -64 -896 0
v -64 -832 0
v 0 -832 0
v -128 -896 0
v -128 -832 0
v -192 -896 0
v -192 -832 0
v -256 -896 0
v -256 -832 0
v -320 -896 0
v -320 -832 0
v -384 -896 0
v -384 -832 0
v -448 -896 0
v -448 -832 0
v -512 -896 0
v -576 -896 0
v -640 -896 0
v -704 -896 0
v -768 -896 0
v -832 -896 0
v -896 -896 0
v -896 -832 0
v -960 -896 0
v -960 -832 0
v -1024 -896 0
v -1024 -832 0
v -1088 -896 0
v -1088 -832 0
v -1152 -896 0
v -1152 -832 0
v -1216 -896 0
v -1216 -832 0
v -1280 -896 0
v -1280 -832 0
v 0 -960 0
v -64 -960 0
v -128 -960 0
v -192 -960 0
v -256 -960 0
v -320 -960 0
v -384 -960 0
v -448 -960 0
v -512 -960 0
v -576 -960 0
v -640 -960 0
v -704 -960 0
v -768 -960 0
v -832 -960 0
v -896 -960 0
v -960 -960 0
v -1024 -960 0
v -1088 -960 0
v -1152 -960 0
v -1216 -960 0
v -1280 -960 0

# Texture cooridinates (Count = 16)
vt 0.04546009 0.9166768
vt 0.09090354 0.9166768
vt 0.09090354 0.9999898
vt 0.04546009 0.9999898
vt 0.09091464 0.9166768
vt 0.1363581 0.9166768
vt 0.1363581 0.9999898
vt 0.09091464 0.9999898
vt 0.1363692 0.9166768
vt 0.1818126 0.9166768
vt 0.1818126 0.9999898
vt 0.1363692 0.9999898
vt 5.548651E-06 0.9166768
vt 0.045449 0.9166768
vt 0.045449 0.9999898
vt 5.548651E-06 0.9999898

# Normal
vn 0 0 -1

# Groups (Count = 1)

g mesh_0001
f 1/1/1 2/2/1 3/3/1 4/4/1
f 2/5/1 5/6/1 6/7/1 3/8/1
f 5/5/1 7/6/1 8/7/1 6/8/1
f 7/9/1 9/10/1 10/11/1 8/12/1
f 11/13/1 12/14/1 2/15/1 1/16/1
f 12/13/1 13/14/1 5/15/1 2/16/1
f 13/13/1 14/14/1 7/15/1 5/16/1
f 14/13/1 15/14/1 9/15/1 7/16/1
f 16/13/1 17/14/1 12/15/1 11/16/1
f 17/13/1 18/14/1 13/15/1 12/16/1
f 18/13/1 19/14/1 14/15/1 13/16/1
f 19/13/1 20/14/1 15/15/1 14/16/1
f 20/9/1 21/10/1 22/11/1 15/12/1
f 23/13/1 24/14/1 17/15/1 16/16/1
f 24/13/1 25/14/1 18/15/1 17/16/1
f 25/13/1 26/14/1 19/15/1 18/16/1
f 26/13/1 27/14/1 20/15/1 19/16/1
f 27/13/1 28/14/1 21/15/1 20/16/1
f 29/13/1 30/14/1 24/15/1 23/16/1
f 30/13/1 31/14/1 25/15/1 24/16/1
f 31/13/1 32/14/1 26/15/1 25/16/1
f 32/13/1 33/14/1 27/15/1 26/16/1
f 33/13/1 34/14/1 28/15/1 27/16/1
f 35/5/1 36/6/1 37/7/1 38/8/1
f 36/5/1 39/6/1 40/7/1 37/8/1
f 39/5/1 41/6/1 42/7/1 40/8/1
f 41/5/1 43/6/1 44/7/1 42/8/1
f 43/5/1 45/6/1 46/7/1 44/8/1
f 45/5/1 47/6/1 48/7/1 46/8/1
f 47/5/1 49/6/1 50/7/1 48/8/1
f 49/5/1 51/6/1 29/7/1 50/8/1
f 51/13/1 52/14/1 30/15/1 29/16/1
f 52/13/1 53/14/1 31/15/1 30/16/1
f 53/13/1 54/14/1 32/15/1 31/16/1
f 54/13/1 55/14/1 33/15/1 32/16/1
f 55/13/1 56/14/1 34/15/1 33/16/1
f 56/5/1 57/6/1 58/7/1 34/8/1
f 57/5/1 59/6/1 60/7/1 58/8/1
f 59/5/1 61/6/1 62/7/1 60/8/1
f 61/5/1 63/6/1 64/7/1 62/8/1
f 63/5/1 65/6/1 66/7/1 64/8/1
f 65/5/1 67/6/1 68/7/1 66/8/1
f 67/5/1 69/6/1 70/7/1 68/8/1
f 71/13/1 72/14/1 36/15/1 35/16/1
f 72/13/1 73/14/1 39/15/1 36/16/1
f 73/13/1 74/14/1 41/15/1 39/16/1
f 74/13/1 75/14/1 43/15/1 41/16/1
f 75/13/1 76/14/1 45/15/1 43/16/1
f 76/13/1 77/14/1 47/15/1 45/16/1
f 77/13/1 78/14/1 49/15/1 47/16/1
f 78/13/1 79/14/1 51/15/1 49/16/1
f 79/13/1 80/14/1 52/15/1 51/16/1
f 80/13/1 81/14/1 53/15/1 52/16/1
f 81/13/1 82/14/1 54/15/1 53/16/1
f 82/13/1 83/14/1 55/15/1 54/16/1
f 83/13/1 84/14/1 56/15/1 55/16/1
f 84/13/1 85/14/1 57/15/1 56/16/1
f 85/13/1 86/14/1 59/15/1 57/16/1
f 86/13/1 87/14/1 61/15/1 59/16/1
f 87/13/1 88/14/1 63/15/1 61/16/1
f 88/13/1 89/14/1 65/15/1 63/16/1
f 89/13/1 90/14/1 67/15/1 65/16/1
f 90/13/1 91/14/1 69/15/1 67/16/1

