# Wavefront OBJ file automatically generated by Tiled2Unity

# Vertices (Count = 259)
v 0 -64 0
v -640 -64 0
v -640 416 0
v 0 416 0
v 0 -128 0
v -64 -128 0
v -64 -64 0
v -128 -128 0
v -128 -64 0
v -192 -128 0
v -192 -64 0
v -256 -128 0
v -256 -64 0
v -320 -128 0
v -320 -64 0
v -384 -128 0
v -384 -64 0
v -448 -128 0
v -448 -64 0
v -512 -128 0
v -512 -64 0
v -576 -128 0
v -576 -64 0
v -640 -128 0
v -704 -128 0
v -704 -64 0
v -768 -128 0
v -768 -64 0
v -832 -128 0
v -832 -64 0
v -896 -128 0
v -896 -64 0
v -960 -128 0
v -960 -64 0
v -1024 -128 0
v -1024 -64 0
v -1088 -128 0
v -1088 -64 0
v -1152 -128 0
v -1152 -64 0
v -1216 -128 0
v -1216 -64 0
v -1280 -128 0
v -1280 -64 0
v 0 -192 0
v -64 -192 0
v -128 -192 0
v -192 -192 0
v -256 -192 0
v -320 -192 0
v -384 -192 0
v -448 -192 0
v -512 -192 0
v -576 -192 0
v -640 -192 0
v -704 -192 0
v -768 -192 0
v -832 -192 0
v -896 -192 0
v -960 -192 0
v -1024 -192 0
v -1088 -192 0
v -1152 -192 0
v -1216 -192 0
v -1280 -192 0
v -256 -256 0
v -320 -256 0
v -384 -256 0
v -448 -256 0
v -512 -256 0
v -576 -256 0
v -640 -256 0
v -704 -256 0
v -768 -256 0
v -832 -256 0
v -896 -256 0
v -960 -256 0
v -1024 -256 0
v -1088 -256 0
v -1152 -256 0
v -1216 -256 0
v -1280 -256 0
v -64 -320 0
v -128 -320 0
v -128 -256 0
v -64 -256 0
v -384 -320 0
v -448 -320 0
v -512 -320 0
v -576 -320 0
v -640 -320 0
v -704 -320 0
v -768 -320 0
v -832 -320 0
v -896 -320 0
v -960 -320 0
v -1024 -320 0
v -1088 -320 0
v -1152 -320 0
v -1216 -320 0
v -1280 -320 0
v 0 -384 0
v -64 -384 0
v 0 -320 0
v -128 -384 0
v -384 -384 0
v -448 -384 0
v -512 -384 0
v -576 -384 0
v -640 -384 0
v -704 -384 0
v -768 -384 0
v -832 -384 0
v -896 -384 0
v -960 -384 0
v -1024 -384 0
v -1088 -384 0
v -1152 -384 0
v -1216 -384 0
v -1280 -384 0
v 0 -448 0
v -64 -448 0
v -128 -448 0
v -192 -448 0
v -192 -384 0
v -448 -448 0
v -512 -448 0
v -576 -448 0
v -640 -448 0
v -704 -448 0
v -768 -448 0
v -1024 -448 0
v -1088 -448 0
v -1152 -448 0
v -1216 -448 0
v -1280 -448 0
v 0 -512 0
v -64 -512 0
v -128 -512 0
v -192 -512 0
v -256 -512 0
v -256 -448 0
v -640 -512 0
v -704 -512 0
v -768 -512 0
v -1024 -512 0
v -1088 -512 0
v -1152 -512 0
v -1216 -512 0
v -1280 -512 0
v 0 -576 0
v -64 -576 0
v -128 -576 0
v -192 -576 0
v -256 -576 0
v -320 -576 0
v -320 -512 0
v -704 -576 0
v -768 -576 0
v -1024 -576 0
v -1088 -576 0
v -1152 -576 0
v -1216 -576 0
v -1280 -576 0
v 0 -640 0
v -64 -640 0
v -128 -640 0
v -192 -640 0
v -256 -640 0
v -320 -640 0
v -384 -640 0
v -384 -576 0
v 0 -704 0
v -64 -704 0
v -128 -704 0
v -192 -704 0
v -256 -704 0
v -320 -704 0
v -384 -704 0
v -448 -704 0
v -448 -640 0
v 0 -768 0
v -64 -768 0
v -128 -768 0
v -192 -768 0
v -256 -768 0
v -320 -768 0
v -384 -768 0
v -448 -768 0
v -512 -768 0
v -512 -704 0
v -576 -768 0
v -576 -704 0
v -640 -768 0
v -640 -704 0
v -704 -768 0
v -704 -704 0
v -768 -768 0
v -768 -704 0
v -832 -768 0
v -832 -704 0
v -896 -768 0
v -896 -704 0
v -960 -768 0
v -960 -704 0
v -1024 -768 0
v -1024 -704 0
v -1088 -768 0
v -1088 -704 0
v -1152 -768 0
v -1152 -704 0
v -1216 -768 0
v -1216 -704 0
v -1280 -768 0
v -1280 -704 0
v -1088 -832 0
v -1152 -832 0
v -1088 -896 0
v -1152 -896 0
v 0 -960 0
v -64 -960 0
v -64 -896 0
v 0 -896 0
v -128 -960 0
v -128 -896 0
v -192 -960 0
v -192 -896 0
v -256 -960 0
v -256 -896 0
v -320 -960 0
v -320 -896 0
v -384 -960 0
v -384 -896 0
v -448 -960 0
v -448 -896 0
v -512 -960 0
v -512 -896 0
v -576 -960 0
v -576 -896 0
v -640 -960 0
v -640 -896 0
v -704 -960 0
v -704 -896 0
v -768 -960 0
v -768 -896 0
v -832 -960 0
v -832 -896 0
v -896 -960 0
v -896 -896 0
v -960 -960 0
v -960 -896 0
v -1024 -960 0
v -1024 -896 0
v -1088 -960 0
v -1152 -960 0
v -1216 -960 0
v -1216 -896 0
v -1280 -960 0
v -1280 -896 0

# Texture cooridinates (Count = 40)
vt 0.0001220703 0.0001220703
vt 0.9998779 0.0001220703
vt 0.9998779 0.9998779
vt 0.0001220703 0.9998779
vt 0.09091464 0.6666769
vt 0.1363581 0.6666769
vt 0.1363581 0.7499899
vt 0.09091464 0.7499899
vt 5.548651E-06 0.6666769
vt 0.045449 0.6666769
vt 0.045449 0.7499899
vt 5.548651E-06 0.7499899
vt 5.548651E-06 0.5833435
vt 0.045449 0.5833435
vt 0.045449 0.6666565
vt 5.548651E-06 0.6666565
vt 5.548651E-06 0.5000101
vt 0.045449 0.5000101
vt 0.045449 0.5833231
vt 5.548651E-06 0.5833231
vt 0.5909147 0.6666769
vt 0.6363581 0.6666769
vt 0.6363581 0.7499899
vt 0.5909147 0.7499899
vt 0.04546009 0.6666769
vt 0.09090354 0.6666769
vt 0.09090354 0.7499899
vt 0.04546009 0.7499899
vt 0.1363692 0.6666769
vt 0.1818126 0.6666769
vt 0.1818126 0.7499899
vt 0.1363692 0.7499899
vt 0.954551 0.5000101
vt 0.9999945 0.5000101
vt 0.9999945 0.5833231
vt 0.954551 0.5833231
vt 0.954551 0.4166768
vt 0.9999945 0.4166768
vt 0.9999945 0.4999898
vt 0.954551 0.4999898

# Normal
vn 0 0 -1

# Groups (Count = 9)

g mesh_0001
f 1/1/1 2/2/1 3/3/1 4/4/1

g mesh_0002
f 1/1/1 2/2/1 3/3/1 4/4/1

g mesh_0003
f 1/1/1 2/2/1 3/3/1 4/4/1

g mesh_0004
f 1/1/1 2/2/1 3/3/1 4/4/1

g mesh_0005
f 1/1/1 2/2/1 3/3/1 4/4/1

g mesh_0006
f 1/1/1 2/2/1 3/3/1 4/4/1

g mesh_0007
f 1/1/1 2/2/1 3/3/1 4/4/1

g mesh_0008
f 1/1/1 2/2/1 3/3/1 4/4/1

g mesh_0009
f 5/5/1 6/6/1 7/7/1 1/8/1
f 6/5/1 8/6/1 9/7/1 7/8/1
f 8/5/1 10/6/1 11/7/1 9/8/1
f 10/5/1 12/6/1 13/7/1 11/8/1
f 12/5/1 14/6/1 15/7/1 13/8/1
f 14/5/1 16/6/1 17/7/1 15/8/1
f 16/5/1 18/6/1 19/7/1 17/8/1
f 18/5/1 20/6/1 21/7/1 19/8/1
f 20/5/1 22/6/1 23/7/1 21/8/1
f 22/5/1 24/6/1 2/7/1 23/8/1
f 24/5/1 25/6/1 26/7/1 2/8/1
f 25/5/1 27/6/1 28/7/1 26/8/1
f 27/5/1 29/6/1 30/7/1 28/8/1
f 29/5/1 31/6/1 32/7/1 30/8/1
f 31/5/1 33/6/1 34/7/1 32/8/1
f 33/5/1 35/6/1 36/7/1 34/8/1
f 35/5/1 37/6/1 38/7/1 36/8/1
f 37/5/1 39/6/1 40/7/1 38/8/1
f 39/5/1 41/6/1 42/7/1 40/8/1
f 41/5/1 43/6/1 44/7/1 42/8/1
f 45/9/1 46/10/1 6/11/1 5/12/1
f 46/9/1 47/10/1 8/11/1 6/12/1
f 47/9/1 48/10/1 10/11/1 8/12/1
f 48/9/1 49/10/1 12/11/1 10/12/1
f 49/13/1 50/14/1 14/15/1 12/16/1
f 50/9/1 51/10/1 16/11/1 14/12/1
f 51/9/1 52/10/1 18/11/1 16/12/1
f 52/13/1 53/14/1 20/15/1 18/16/1
f 53/9/1 54/10/1 22/11/1 20/12/1
f 54/9/1 55/10/1 24/11/1 22/12/1
f 55/9/1 56/10/1 25/11/1 24/12/1
f 56/9/1 57/10/1 27/11/1 25/12/1
f 57/9/1 58/10/1 29/11/1 27/12/1
f 58/9/1 59/10/1 31/11/1 29/12/1
f 59/17/1 60/18/1 33/19/1 31/20/1
f 60/9/1 61/10/1 35/11/1 33/12/1
f 61/9/1 62/10/1 37/11/1 35/12/1
f 62/9/1 63/10/1 39/11/1 37/12/1
f 63/9/1 64/10/1 41/11/1 39/12/1
f 64/13/1 65/14/1 43/15/1 41/16/1
f 66/9/1 67/10/1 50/11/1 49/12/1
f 67/9/1 68/10/1 51/11/1 50/12/1
f 68/13/1 69/14/1 52/15/1 51/16/1
f 69/9/1 70/10/1 53/11/1 52/12/1
f 70/9/1 71/10/1 54/11/1 53/12/1
f 71/9/1 72/10/1 55/11/1 54/12/1
f 72/17/1 73/18/1 56/19/1 55/20/1
f 73/13/1 74/14/1 57/15/1 56/16/1
f 74/13/1 75/14/1 58/15/1 57/16/1
f 75/9/1 76/10/1 59/11/1 58/12/1
f 76/9/1 77/10/1 60/11/1 59/12/1
f 77/17/1 78/18/1 61/19/1 60/20/1
f 78/9/1 79/10/1 62/11/1 61/12/1
f 79/13/1 80/14/1 63/15/1 62/16/1
f 80/13/1 81/14/1 64/15/1 63/16/1
f 81/9/1 82/10/1 65/11/1 64/12/1
f 83/21/1 84/22/1 85/23/1 86/24/1
f 87/9/1 88/10/1 69/11/1 68/12/1
f 88/9/1 89/10/1 70/11/1 69/12/1
f 89/13/1 90/14/1 71/15/1 70/16/1
f 90/17/1 91/18/1 72/19/1 71/20/1
f 91/9/1 92/10/1 73/11/1 72/12/1
f 92/9/1 93/10/1 74/11/1 73/12/1
f 93/13/1 94/14/1 75/15/1 74/16/1
f 94/9/1 95/10/1 76/11/1 75/12/1
f 95/13/1 96/14/1 77/15/1 76/16/1
f 96/9/1 97/10/1 78/11/1 77/12/1
f 97/13/1 98/14/1 79/15/1 78/16/1
f 98/13/1 99/14/1 80/15/1 79/16/1
f 99/9/1 100/10/1 81/11/1 80/12/1
f 100/13/1 101/14/1 82/15/1 81/16/1
f 102/25/1 103/26/1 83/27/1 104/28/1
f 103/29/1 105/30/1 84/31/1 83/32/1
f 106/9/1 107/10/1 88/11/1 87/12/1
f 107/13/1 108/14/1 89/15/1 88/16/1
f 108/9/1 109/10/1 90/11/1 89/12/1
f 109/13/1 110/14/1 91/15/1 90/16/1
f 110/9/1 111/10/1 92/11/1 91/12/1
f 111/9/1 112/10/1 93/11/1 92/12/1
f 112/13/1 113/14/1 94/15/1 93/16/1
f 113/9/1 114/10/1 95/11/1 94/12/1
f 114/13/1 115/14/1 96/15/1 95/16/1
f 115/9/1 116/10/1 97/11/1 96/12/1
f 116/9/1 117/10/1 98/11/1 97/12/1
f 117/17/1 118/18/1 99/19/1 98/20/1
f 118/13/1 119/14/1 100/15/1 99/16/1
f 119/9/1 120/10/1 101/11/1 100/12/1
f 121/13/1 122/14/1 103/15/1 102/16/1
f 122/9/1 123/10/1 105/11/1 103/12/1
f 123/29/1 124/30/1 125/31/1 105/32/1
f 126/9/1 127/10/1 108/11/1 107/12/1
f 127/9/1 128/10/1 109/11/1 108/12/1
f 128/9/1 129/10/1 110/11/1 109/12/1
f 129/17/1 130/18/1 111/19/1 110/20/1
f 130/9/1 131/10/1 112/11/1 111/12/1
f 132/9/1 133/10/1 117/11/1 116/12/1
f 133/9/1 134/10/1 118/11/1 117/12/1
f 134/9/1 135/10/1 119/11/1 118/12/1
f 135/17/1 136/18/1 120/19/1 119/20/1
f 137/9/1 138/10/1 122/11/1 121/12/1
f 138/17/1 139/18/1 123/19/1 122/20/1
f 139/9/1 140/10/1 124/11/1 123/12/1
f 140/29/1 141/30/1 142/31/1 124/32/1
f 143/9/1 144/10/1 130/11/1 129/12/1
f 144/9/1 145/10/1 131/11/1 130/12/1
f 146/9/1 147/10/1 133/11/1 132/12/1
f 147/13/1 148/14/1 134/15/1 133/16/1
f 148/13/1 149/14/1 135/15/1 134/16/1
f 149/9/1 150/10/1 136/11/1 135/12/1
f 151/9/1 152/10/1 138/11/1 137/12/1
f 152/13/1 153/14/1 139/15/1 138/16/1
f 153/17/1 154/18/1 140/19/1 139/20/1
f 154/9/1 155/10/1 141/11/1 140/12/1
f 155/29/1 156/30/1 157/31/1 141/32/1
f 158/13/1 159/14/1 145/15/1 144/16/1
f 160/9/1 161/10/1 147/11/1 146/12/1
f 161/9/1 162/10/1 148/11/1 147/12/1
f 162/17/1 163/18/1 149/19/1 148/20/1
f 163/9/1 164/10/1 150/11/1 149/12/1
f 165/13/1 166/14/1 152/15/1 151/16/1
f 166/9/1 167/10/1 153/11/1 152/12/1
f 167/9/1 168/10/1 154/11/1 153/12/1
f 168/17/1 169/18/1 155/19/1 154/20/1
f 169/9/1 170/10/1 156/11/1 155/12/1
f 170/29/1 171/30/1 172/31/1 156/32/1
f 173/9/1 174/10/1 166/11/1 165/12/1
f 174/17/1 175/18/1 167/19/1 166/20/1
f 175/9/1 176/10/1 168/11/1 167/12/1
f 176/13/1 177/14/1 169/15/1 168/16/1
f 177/9/1 178/10/1 170/11/1 169/12/1
f 178/9/1 179/10/1 171/11/1 170/12/1
f 179/29/1 180/30/1 181/31/1 171/32/1
f 182/9/1 183/10/1 174/11/1 173/12/1
f 183/13/1 184/14/1 175/15/1 174/16/1
f 184/9/1 185/10/1 176/11/1 175/12/1
f 185/17/1 186/18/1 177/19/1 176/20/1
f 186/13/1 187/14/1 178/15/1 177/16/1
f 187/17/1 188/18/1 179/19/1 178/20/1
f 188/9/1 189/10/1 180/11/1 179/12/1
f 189/5/1 190/6/1 191/7/1 180/8/1
f 190/5/1 192/6/1 193/7/1 191/8/1
f 192/5/1 194/6/1 195/7/1 193/8/1
f 194/5/1 196/6/1 197/7/1 195/8/1
f 196/5/1 198/6/1 199/7/1 197/8/1
f 198/5/1 200/6/1 201/7/1 199/8/1
f 200/5/1 202/6/1 203/7/1 201/8/1
f 202/5/1 204/6/1 205/7/1 203/8/1
f 204/5/1 206/6/1 207/7/1 205/8/1
f 206/5/1 208/6/1 209/7/1 207/8/1
f 208/5/1 210/6/1 211/7/1 209/8/1
f 210/5/1 212/6/1 213/7/1 211/8/1
f 212/5/1 214/6/1 215/7/1 213/8/1
f 216/33/1 217/34/1 210/35/1 208/36/1
f 218/37/1 219/38/1 217/39/1 216/40/1
f 220/5/1 221/6/1 222/7/1 223/8/1
f 221/5/1 224/6/1 225/7/1 222/8/1
f 224/5/1 226/6/1 227/7/1 225/8/1
f 226/5/1 228/6/1 229/7/1 227/8/1
f 228/5/1 230/6/1 231/7/1 229/8/1
f 230/5/1 232/6/1 233/7/1 231/8/1
f 232/5/1 234/6/1 235/7/1 233/8/1
f 234/5/1 236/6/1 237/7/1 235/8/1
f 236/5/1 238/6/1 239/7/1 237/8/1
f 238/5/1 240/6/1 241/7/1 239/8/1
f 240/5/1 242/6/1 243/7/1 241/8/1
f 242/5/1 244/6/1 245/7/1 243/8/1
f 244/5/1 246/6/1 247/7/1 245/8/1
f 246/5/1 248/6/1 249/7/1 247/8/1
f 248/5/1 250/6/1 251/7/1 249/8/1
f 250/5/1 252/6/1 253/7/1 251/8/1
f 252/5/1 254/6/1 218/7/1 253/8/1
f 254/5/1 255/6/1 219/7/1 218/8/1
f 255/5/1 256/6/1 257/7/1 219/8/1
f 256/5/1 258/6/1 259/7/1 257/8/1

