# Wavefront OBJ file automatically generated by Tiled2Unity

# Vertices (Count = 107)
v 0 -64 0
v -64 -64 0
v -64 0 0
v 0 0 0
v -128 -64 0
v -128 0 0
v -192 -64 0
v -192 0 0
v -256 -64 0
v -256 0 0
v -320 -64 0
v -320 0 0
v -384 -64 0
v -384 0 0
v -448 -64 0
v -448 0 0
v -512 -64 0
v -512 0 0
v -768 -64 0
v -832 -64 0
v -832 0 0
v -768 0 0
v -896 -64 0
v -896 0 0
v -960 -64 0
v -960 0 0
v -1024 -64 0
v -1024 0 0
v -1088 -64 0
v -1088 0 0
v -1152 -64 0
v -1152 0 0
v -1216 -64 0
v -1216 0 0
v -1280 -64 0
v -1280 0 0
v 0 -128 0
v -64 -128 0
v -128 -128 0
v -192 -128 0
v -256 -128 0
v -320 -128 0
v -384 -128 0
v -448 -128 0
v -512 -128 0
v -768 -128 0
v -832 -128 0
v -896 -128 0
v -960 -128 0
v -1024 -128 0
v -1088 -128 0
v -1152 -128 0
v -1216 -128 0
v -1280 -128 0
v -320 -192 0
v -384 -192 0
v -448 -192 0
v -512 -192 0
v -768 -192 0
v -832 -192 0
v -896 -192 0
v -960 -192 0
v -1024 -192 0
v -1088 -192 0
v -1152 -192 0
v -1216 -192 0
v -1280 -192 0
v -256 -256 0
v -320 -256 0
v -256 -192 0
v -384 -256 0
v -448 -256 0
v -512 -256 0
v -768 -256 0
v -832 -256 0
v -896 -256 0
v -768 -320 0
v -832 -320 0
v -896 -320 0
v -960 -320 0
v -960 -256 0
v -768 -384 0
v -832 -384 0
v -896 -384 0
v -960 -384 0
v -768 -448 0
v -832 -448 0
v -896 -448 0
v -960 -448 0
v 0 -192 0
v -64 -192 0
v -128 -192 0
v -192 -192 0
v -1024 -256 0
v -1088 -256 0
v -1152 -256 0
v -1216 -256 0
v -1280 -256 0
v -256 -320 0
v -320 -320 0
v -384 -320 0
v -448 -320 0
v -512 -320 0
v -768 -512 0
v -832 -512 0
v -896 -512 0
v -960 -512 0

# Texture cooridinates (Count = 20)
vt 5.548651E-06 0.6666769
vt 0.045449 0.6666769
vt 0.045449 0.7499899
vt 5.548651E-06 0.7499899
vt 0.8636419 0.2500102
vt 0.9090853 0.2500102
vt 0.9090853 0.3333232
vt 0.8636419 0.3333232
vt 0.954551 0.2500102
vt 0.9999945 0.2500102
vt 0.9999945 0.3333232
vt 0.954551 0.3333232
vt 0.8181874 0.2500102
vt 0.8636308 0.2500102
vt 0.8636308 0.3333232
vt 0.8181874 0.3333232
vt 0.9090965 0.2500102
vt 0.9545399 0.2500102
vt 0.9545399 0.3333232
vt 0.9090965 0.3333232

# Normal
vn 0 0 -1

# Groups (Count = 1)

g mesh_0001
f 1/1/1 2/2/1 3/3/1 4/4/1
f 2/1/1 5/2/1 6/3/1 3/4/1
f 5/1/1 7/2/1 8/3/1 6/4/1
f 7/1/1 9/2/1 10/3/1 8/4/1
f 9/1/1 11/2/1 12/3/1 10/4/1
f 11/1/1 13/2/1 14/3/1 12/4/1
f 13/1/1 15/2/1 16/3/1 14/4/1
f 15/1/1 17/2/1 18/3/1 16/4/1
f 19/1/1 20/2/1 21/3/1 22/4/1
f 20/1/1 23/2/1 24/3/1 21/4/1
f 23/1/1 25/2/1 26/3/1 24/4/1
f 25/1/1 27/2/1 28/3/1 26/4/1
f 27/1/1 29/2/1 30/3/1 28/4/1
f 29/1/1 31/2/1 32/3/1 30/4/1
f 31/1/1 33/2/1 34/3/1 32/4/1
f 33/1/1 35/2/1 36/3/1 34/4/1
f 37/1/1 38/2/1 2/3/1 1/4/1
f 38/1/1 39/2/1 5/3/1 2/4/1
f 39/1/1 40/2/1 7/3/1 5/4/1
f 40/1/1 41/2/1 9/3/1 7/4/1
f 41/1/1 42/2/1 11/3/1 9/4/1
f 42/1/1 43/2/1 13/3/1 11/4/1
f 43/1/1 44/2/1 15/3/1 13/4/1
f 44/1/1 45/2/1 17/3/1 15/4/1
f 46/1/1 47/2/1 20/3/1 19/4/1
f 47/1/1 48/2/1 23/3/1 20/4/1
f 48/1/1 49/2/1 25/3/1 23/4/1
f 49/1/1 50/2/1 27/3/1 25/4/1
f 50/1/1 51/2/1 29/3/1 27/4/1
f 51/1/1 52/2/1 31/3/1 29/4/1
f 52/1/1 53/2/1 33/3/1 31/4/1
f 53/1/1 54/2/1 35/3/1 33/4/1
f 55/1/1 56/2/1 43/3/1 42/4/1
f 56/1/1 57/2/1 44/3/1 43/4/1
f 57/1/1 58/2/1 45/3/1 44/4/1
f 59/1/1 60/2/1 47/3/1 46/4/1
f 60/1/1 61/2/1 48/3/1 47/4/1
f 61/1/1 62/2/1 49/3/1 48/4/1
f 62/1/1 63/2/1 50/3/1 49/4/1
f 63/1/1 64/2/1 51/3/1 50/4/1
f 64/1/1 65/2/1 52/3/1 51/4/1
f 65/1/1 66/2/1 53/3/1 52/4/1
f 66/1/1 67/2/1 54/3/1 53/4/1
f 68/1/1 69/2/1 55/3/1 70/4/1
f 69/1/1 71/2/1 56/3/1 55/4/1
f 71/1/1 72/2/1 57/3/1 56/4/1
f 72/1/1 73/2/1 58/3/1 57/4/1
f 74/1/1 75/2/1 60/3/1 59/4/1
f 75/1/1 76/2/1 61/3/1 60/4/1
f 77/1/1 78/2/1 75/3/1 74/4/1
f 78/1/1 79/2/1 76/3/1 75/4/1
f 79/1/1 80/2/1 81/3/1 76/4/1
f 82/1/1 83/2/1 78/3/1 77/4/1
f 83/1/1 84/2/1 79/3/1 78/4/1
f 84/1/1 85/2/1 80/3/1 79/4/1
f 86/1/1 87/2/1 83/3/1 82/4/1
f 87/1/1 88/2/1 84/3/1 83/4/1
f 88/1/1 89/2/1 85/3/1 84/4/1

g mesh_0002
f 90/5/1 91/6/1 38/7/1 37/8/1
f 91/5/1 92/6/1 39/7/1 38/8/1
f 92/5/1 93/6/1 40/7/1 39/8/1
f 93/5/1 70/6/1 41/7/1 40/8/1
f 70/9/1 55/10/1 42/11/1 41/12/1
f 76/9/1 81/10/1 62/11/1 61/12/1
f 81/5/1 94/6/1 63/7/1 62/8/1
f 94/5/1 95/6/1 64/7/1 63/8/1
f 95/5/1 96/6/1 65/7/1 64/8/1
f 96/5/1 97/6/1 66/7/1 65/8/1
f 97/5/1 98/6/1 67/7/1 66/8/1
f 99/13/1 100/14/1 69/15/1 68/16/1
f 100/5/1 101/6/1 71/7/1 69/8/1
f 101/5/1 102/6/1 72/7/1 71/8/1
f 102/17/1 103/18/1 73/19/1 72/20/1
f 104/13/1 105/14/1 87/15/1 86/16/1
f 105/5/1 106/6/1 88/7/1 87/8/1
f 106/17/1 107/18/1 89/19/1 88/20/1

