# Wavefront OBJ file automatically generated by Tiled2Unity

# Vertices (Count = 64)
v -3200 -3008 0
v -3264 -3008 0
v -3264 -2944 0
v -3200 -2944 0
v -3328 -3008 0
v -3328 -2944 0
v -3392 -3008 0
v -3392 -2944 0
v -3456 -3008 0
v -3456 -2944 0
v -3520 -3008 0
v -3520 -2944 0
v -3584 -3008 0
v -3584 -2944 0
v -3008 -3072 0
v -3072 -3072 0
v -3072 -3008 0
v -3008 -3008 0
v -3136 -3072 0
v -3136 -3008 0
v -3200 -3072 0
v -3264 -3072 0
v -3328 -3072 0
v -3392 -3072 0
v -3456 -3072 0
v -3520 -3072 0
v -3584 -3072 0
v -3648 -3072 0
v -3648 -3008 0
v -3712 -3072 0
v -3712 -3008 0
v -3776 -3072 0
v -3776 -3008 0
v -3840 -3072 0
v -3840 -3008 0
v -3904 -3072 0
v -3904 -3008 0
v -3968 -3072 0
v -3968 -3008 0
v -4032 -3072 0
v -4032 -3008 0
v -4096 -3072 0
v -4096 -3008 0
v -4160 -3072 0
v -4160 -3008 0
v -3008 -3136 0
v -3072 -3136 0
v -3136 -3136 0
v -3200 -3136 0
v -3264 -3136 0
v -3328 -3136 0
v -3392 -3136 0
v -3456 -3136 0
v -3520 -3136 0
v -3584 -3136 0
v -3648 -3136 0
v -3712 -3136 0
v -3776 -3136 0
v -3840 -3136 0
v -3904 -3136 0
v -3968 -3136 0
v -4032 -3136 0
v -4096 -3136 0
v -4160 -3136 0

# Texture cooridinates (Count = 16)
vt 0.04546009 0.6666769
vt 0.09090354 0.6666769
vt 0.09090354 0.7499899
vt 0.04546009 0.7499899
vt 0.09091464 0.6666769
vt 0.1363581 0.6666769
vt 0.1363581 0.7499899
vt 0.09091464 0.7499899
vt 0.1363692 0.6666769
vt 0.1818126 0.6666769
vt 0.1818126 0.7499899
vt 0.1363692 0.7499899
vt 5.548651E-06 0.6666769
vt 0.045449 0.6666769
vt 0.045449 0.7499899
vt 5.548651E-06 0.7499899

# Normal
vn 0 0 -1

# Groups (Count = 1)

g mesh_0001
f 1/1/1 2/2/1 3/3/1 4/4/1
f 2/5/1 5/6/1 6/7/1 3/8/1
f 5/5/1 7/6/1 8/7/1 6/8/1
f 7/5/1 9/6/1 10/7/1 8/8/1
f 9/5/1 11/6/1 12/7/1 10/8/1
f 11/9/1 13/10/1 14/11/1 12/12/1
f 15/1/1 16/2/1 17/3/1 18/4/1
f 16/5/1 19/6/1 20/7/1 17/8/1
f 19/5/1 21/6/1 1/7/1 20/8/1
f 21/13/1 22/14/1 2/15/1 1/16/1
f 22/13/1 23/14/1 5/15/1 2/16/1
f 23/13/1 24/14/1 7/15/1 5/16/1
f 24/13/1 25/14/1 9/15/1 7/16/1
f 25/13/1 26/14/1 11/15/1 9/16/1
f 26/13/1 27/14/1 13/15/1 11/16/1
f 27/5/1 28/6/1 29/7/1 13/8/1
f 28/5/1 30/6/1 31/7/1 29/8/1
f 30/5/1 32/6/1 33/7/1 31/8/1
f 32/5/1 34/6/1 35/7/1 33/8/1
f 34/5/1 36/6/1 37/7/1 35/8/1
f 36/5/1 38/6/1 39/7/1 37/8/1
f 38/5/1 40/6/1 41/7/1 39/8/1
f 40/5/1 42/6/1 43/7/1 41/8/1
f 42/9/1 44/10/1 45/11/1 43/12/1
f 46/13/1 47/14/1 16/15/1 15/16/1
f 47/13/1 48/14/1 19/15/1 16/16/1
f 48/13/1 49/14/1 21/15/1 19/16/1
f 49/13/1 50/14/1 22/15/1 21/16/1
f 50/13/1 51/14/1 23/15/1 22/16/1
f 51/13/1 52/14/1 24/15/1 23/16/1
f 52/13/1 53/14/1 25/15/1 24/16/1
f 53/13/1 54/14/1 26/15/1 25/16/1
f 54/13/1 55/14/1 27/15/1 26/16/1
f 55/13/1 56/14/1 28/15/1 27/16/1
f 56/13/1 57/14/1 30/15/1 28/16/1
f 57/13/1 58/14/1 32/15/1 30/16/1
f 58/13/1 59/14/1 34/15/1 32/16/1
f 59/13/1 60/14/1 36/15/1 34/16/1
f 60/13/1 61/14/1 38/15/1 36/16/1
f 61/13/1 62/14/1 40/15/1 38/16/1
f 62/13/1 63/14/1 42/15/1 40/16/1
f 63/13/1 64/14/1 44/15/1 42/16/1

